<?xml version="1.0" encoding="utf-8"?>
<!-- Generator: Adobe Illustrator 26.0.2, SVG Export Plug-In . SVG Version: 6.00 Build 0)  -->
<svg version="1.1" id="Layer_1" xmlns="http://www.w3.org/2000/svg" xmlns:xlink="http://www.w3.org/1999/xlink" x="0px" y="0px"
	 viewBox="0 0 96 96" style="enable-background:new 0 0 96 96;" xml:space="preserve">
<style type="text/css">
	.st0{fill:#FFFFFF;}
</style>
<g>
	<path class="st0" d="M23.45,83.39V72.75l24.85-23.01c2.11-2.05,3.89-3.89,5.33-5.52s2.54-3.24,3.29-4.82s1.12-3.29,1.12-5.13
		c0-2.05-0.47-3.81-1.4-5.3c-0.93-1.49-2.2-2.64-3.82-3.44c-1.61-0.81-3.44-1.21-5.49-1.21c-2.14,0-4,0.43-5.59,1.3
		c-1.59,0.86-2.82,2.1-3.68,3.72c-0.86,1.61-1.3,3.53-1.3,5.76H22.77c0-4.57,1.03-8.53,3.1-11.9c2.07-3.36,4.97-5.97,8.69-7.81
		s8.02-2.76,12.89-2.76c5,0,9.36,0.88,13.07,2.64c3.72,1.76,6.61,4.2,8.68,7.31c2.07,3.11,3.1,6.68,3.1,10.7
		c0,2.64-0.52,5.24-1.55,7.81s-2.87,5.42-5.51,8.54c-2.64,3.12-6.35,6.87-11.15,11.23l-10.19,9.99v0.48h29.32v12.07H23.45z"/>
</g>
</svg>
