<?xml version="1.0" encoding="utf-8"?>
<!-- Generator: Adobe Illustrator 26.0.2, SVG Export Plug-In . SVG Version: 6.00 Build 0)  -->
<svg version="1.1" id="Layer_1" xmlns="http://www.w3.org/2000/svg" xmlns:xlink="http://www.w3.org/1999/xlink" x="0px" y="0px"
	 viewBox="0 0 96 96" style="enable-background:new 0 0 96 96;" xml:space="preserve">
<style type="text/css">
	.st0{fill:#FFFFFF;}
</style>
<g>
	<path class="st0" d="M51.03,84.34c-5.09,0-9.62-0.88-13.58-2.64c-3.97-1.76-7.09-4.19-9.38-7.3s-3.46-6.69-3.53-10.76H39.4
		c0.09,1.71,0.65,3.2,1.69,4.48s2.42,2.28,4.14,2.98c1.73,0.71,3.67,1.06,5.83,1.06c2.25,0,4.24-0.4,5.97-1.19
		c1.73-0.8,3.08-1.9,4.06-3.31s1.47-3.03,1.47-4.88c0-1.86-0.52-3.52-1.55-4.96c-1.03-1.44-2.51-2.57-4.43-3.39
		c-1.92-0.82-4.2-1.23-6.83-1.23h-6.51V42.38h6.51c2.23,0,4.2-0.39,5.91-1.16c1.72-0.77,3.05-1.85,4.01-3.22
		c0.96-1.38,1.43-2.98,1.43-4.82c0-1.75-0.42-3.29-1.24-4.62c-0.83-1.33-1.99-2.37-3.48-3.12s-3.22-1.12-5.2-1.12
		c-2,0-3.83,0.36-5.49,1.07c-1.66,0.72-2.99,1.73-3.99,3.05c-1,1.32-1.53,2.86-1.6,4.64H25.94c0.07-4.02,1.22-7.57,3.44-10.64
		c2.23-3.07,5.23-5.47,9.02-7.21c3.78-1.74,8.06-2.61,12.84-2.61c4.82,0,9.03,0.88,12.65,2.62c3.61,1.75,6.43,4.11,8.44,7.07
		c2.01,2.97,3,6.29,2.98,9.97c0.02,3.91-1.19,7.17-3.63,9.78c-2.44,2.61-5.62,4.27-9.53,4.98v0.55c5.14,0.66,9.05,2.44,11.75,5.33
		c2.69,2.9,4.03,6.52,4,10.86c0.02,3.98-1.12,7.51-3.43,10.6s-5.48,5.52-9.53,7.29C60.89,83.46,56.26,84.34,51.03,84.34z"/>
</g>
</svg>
