<?xml version="1.0" encoding="utf-8"?>
<!-- Generator: Adobe Illustrator 26.0.2, SVG Export Plug-In . SVG Version: 6.00 Build 0)  -->
<svg version="1.1" id="Layer_1" xmlns="http://www.w3.org/2000/svg" xmlns:xlink="http://www.w3.org/1999/xlink" x="0px" y="0px"
	 viewBox="0 0 96 96" style="enable-background:new 0 0 96 96;" xml:space="preserve">
<style type="text/css">
	.st0{fill:#FFFFFF;}
</style>
<g>
	<path class="st0" d="M47.59,83.39c-4.82,0-9.11-0.89-12.87-2.66c-3.76-1.77-6.75-4.21-8.95-7.33c-2.21-3.11-3.35-6.68-3.44-10.71
		h14.32c0.16,2.71,1.3,4.9,3.41,6.58s4.62,2.52,7.53,2.52c2.32,0,4.37-0.52,6.15-1.55s3.18-2.48,4.19-4.33
		c1.01-1.85,1.52-3.98,1.52-6.39c0-2.46-0.52-4.61-1.55-6.48c-1.03-1.86-2.46-3.32-4.28-4.36c-1.82-1.04-3.9-1.58-6.24-1.6
		c-2.04,0-4.03,0.42-5.95,1.26c-1.92,0.84-3.42,1.99-4.48,3.44l-13.13-2.35l3.31-36.82h42.68v12.07H39.31L37.5,42.17h0.41
		c1.23-1.73,3.08-3.16,5.56-4.3c2.48-1.14,5.25-1.7,8.32-1.7c4.2,0,7.95,0.99,11.25,2.97c3.29,1.98,5.9,4.69,7.81,8.13
		c1.91,3.44,2.85,7.4,2.83,11.88c0.02,4.7-1.06,8.88-3.25,12.53c-2.19,3.65-5.25,6.51-9.17,8.59S52.77,83.39,47.59,83.39z"/>
</g>
</svg>
