<?xml version="1.0" encoding="utf-8"?>
<!-- Generator: Adobe Illustrator 26.0.2, SVG Export Plug-In . SVG Version: 6.00 Build 0)  -->
<svg version="1.1" id="Layer_1" xmlns="http://www.w3.org/2000/svg" xmlns:xlink="http://www.w3.org/1999/xlink" x="0px" y="0px"
	 viewBox="0 0 96 96" style="enable-background:new 0 0 96 96;" xml:space="preserve">
<style type="text/css">
	.st0{fill:#FFFFFF;}
</style>
<g>
	<path class="st0" d="M48.89,83.86c-3.59-0.02-7.05-0.62-10.38-1.81c-3.33-1.18-6.31-3.1-8.95-5.76c-2.64-2.66-4.72-6.18-6.26-10.57
		c-1.53-4.39-2.3-9.77-2.3-16.16c0.02-5.86,0.7-11.11,2.03-15.73c1.33-4.62,3.24-8.55,5.73-11.78c2.49-3.23,5.47-5.69,8.95-7.38
		c3.48-1.69,7.38-2.54,11.69-2.54c4.66,0,8.77,0.9,12.34,2.71s6.44,4.26,8.61,7.35c2.17,3.09,3.48,6.56,3.94,10.4H59.73
		c-0.57-2.43-1.76-4.34-3.58-5.73c-1.82-1.39-4.07-2.08-6.75-2.08c-4.55,0-7.99,1.98-10.35,5.93s-3.55,9.33-3.6,16.12h0.48
		c1.04-2.07,2.46-3.83,4.24-5.3c1.78-1.47,3.82-2.59,6.1-3.38c2.28-0.78,4.7-1.18,7.24-1.18c4.14,0,7.82,0.97,11.05,2.91
		c3.23,1.94,5.77,4.61,7.64,7.99S75,55.16,75,59.52c0,4.73-1.1,8.93-3.29,12.61c-2.19,3.68-5.25,6.56-9.17,8.64
		C58.62,82.86,54.07,83.89,48.89,83.86z M48.82,72.27c2.27,0,4.31-0.54,6.1-1.64c1.8-1.09,3.21-2.57,4.23-4.43
		c1.02-1.86,1.53-3.95,1.53-6.27s-0.51-4.4-1.52-6.24c-1.01-1.84-2.4-3.31-4.18-4.4c-1.77-1.09-3.8-1.64-6.07-1.64
		c-1.7,0-3.28,0.32-4.72,0.95c-1.44,0.64-2.7,1.52-3.78,2.66c-1.08,1.14-1.93,2.45-2.54,3.94c-0.61,1.49-0.92,3.07-0.92,4.76
		c0,2.25,0.52,4.31,1.55,6.17c1.03,1.86,2.44,3.35,4.23,4.47S46.54,72.27,48.82,72.27z"/>
</g>
</svg>
