<?xml version="1.0" encoding="utf-8"?>
<!-- Generator: Adobe Illustrator 26.0.2, SVG Export Plug-In . SVG Version: 6.00 Build 0)  -->
<svg version="1.1" id="Layer_1" xmlns="http://www.w3.org/2000/svg" xmlns:xlink="http://www.w3.org/1999/xlink" x="0px" y="0px"
	 viewBox="0 0 96 96" style="enable-background:new 0 0 96 96;" xml:space="preserve">
<style type="text/css">
	.st0{fill:#FFFFFF;}
</style>
<g>
	<path class="st0" d="M47.98,83.86c-5.25,0-9.91-0.86-13.99-2.57c-4.08-1.72-7.28-4.06-9.6-7.04c-2.32-2.98-3.48-6.35-3.48-10.12
		c0-2.91,0.66-5.58,1.99-8.03c1.33-2.44,3.14-4.48,5.44-6.1c2.29-1.62,4.86-2.66,7.7-3.12V46.4c-3.73-0.75-6.75-2.56-9.07-5.44
		c-2.32-2.88-3.48-6.22-3.48-10.04c0-3.61,1.06-6.83,3.17-9.66c2.11-2.83,5.02-5.06,8.71-6.68c3.69-1.62,7.89-2.44,12.6-2.44
		c4.71,0,8.9,0.82,12.6,2.45c3.69,1.64,6.6,3.87,8.71,6.7c2.11,2.83,3.18,6.04,3.2,9.63c-0.02,3.84-1.21,7.19-3.54,10.06
		c-2.34,2.86-5.34,4.67-9,5.42v0.48c2.79,0.46,5.33,1.49,7.62,3.12c2.28,1.62,4.1,3.66,5.45,6.1s2.04,5.12,2.06,8.03
		c-0.02,3.77-1.19,7.15-3.51,10.12c-2.32,2.98-5.52,5.32-9.6,7.04C57.9,83.01,53.23,83.86,47.98,83.86z M47.98,73.02
		c2.34,0,4.39-0.43,6.14-1.28s3.12-2.03,4.11-3.55c0.99-1.51,1.48-3.25,1.48-5.23c0-2.02-0.51-3.81-1.53-5.37
		c-1.02-1.56-2.41-2.78-4.16-3.68c-1.75-0.9-3.76-1.35-6.03-1.35c-2.25,0-4.26,0.45-6.03,1.35c-1.77,0.9-3.17,2.12-4.18,3.68
		c-1.01,1.56-1.52,3.35-1.52,5.37c0,1.98,0.49,3.72,1.47,5.23c0.98,1.51,2.35,2.69,4.12,3.55S45.67,73.02,47.98,73.02z M47.98,41.83
		c1.96,0,3.69-0.4,5.22-1.19c1.52-0.79,2.71-1.9,3.58-3.31c0.86-1.41,1.3-3.03,1.3-4.88c0-1.82-0.43-3.41-1.3-4.79
		c-0.86-1.38-2.05-2.45-3.55-3.24s-3.25-1.18-5.25-1.18c-1.98,0-3.73,0.39-5.25,1.18s-2.71,1.86-3.56,3.24
		c-0.85,1.38-1.28,2.97-1.28,4.79c0,1.84,0.43,3.47,1.3,4.88c0.86,1.41,2.06,2.51,3.58,3.31C44.29,41.43,46.03,41.83,47.98,41.83z"
		/>
</g>
</svg>
