<?xml version="1.0" encoding="utf-8"?>
<!-- Generator: Adobe Illustrator 26.0.2, SVG Export Plug-In . SVG Version: 6.00 Build 0)  -->
<svg version="1.1" id="Layer_1" xmlns="http://www.w3.org/2000/svg" xmlns:xlink="http://www.w3.org/1999/xlink" x="0px" y="0px"
	 viewBox="0 0 96 96" style="enable-background:new 0 0 96 96;" xml:space="preserve">
<style type="text/css">
	.st0{fill:#FFFFFF;}
</style>
<g>
	<path class="st0" d="M47.1,12.14c3.59,0,7.05,0.6,10.38,1.81s6.31,3.12,8.93,5.76c2.62,2.64,4.7,6.13,6.24,10.48
		c1.53,4.35,2.31,9.69,2.33,16.01c0,5.93-0.67,11.22-1.99,15.87s-3.23,8.6-5.71,11.85c-2.48,3.25-5.47,5.72-8.97,7.41
		c-3.5,1.69-7.41,2.54-11.73,2.54c-4.66,0-8.77-0.9-12.34-2.71c-3.57-1.81-6.44-4.27-8.61-7.4s-3.48-6.64-3.94-10.55h14.56
		c0.57,2.55,1.76,4.52,3.58,5.92s4.07,2.1,6.75,2.1c4.54,0,8-1.98,10.36-5.95c2.36-3.97,3.56-9.4,3.58-16.31h-0.48
		c-1.05,2.05-2.45,3.8-4.23,5.27c-1.77,1.47-3.8,2.6-6.08,3.39c-2.28,0.8-4.71,1.19-7.28,1.19c-4.11,0-7.78-0.97-11.01-2.9
		s-5.77-4.59-7.64-7.98c-1.86-3.39-2.8-7.25-2.8-11.59c-0.02-4.68,1.06-8.85,3.24-12.51c2.18-3.66,5.23-6.53,9.15-8.61
		C37.33,13.14,41.89,12.11,47.1,12.14z M47.2,23.73c-2.3,0-4.33,0.55-6.12,1.64s-3.19,2.56-4.23,4.4c-1.03,1.84-1.54,3.9-1.52,6.17
		c0,2.3,0.51,4.36,1.52,6.19c1.01,1.83,2.4,3.28,4.16,4.36c1.76,1.08,3.78,1.62,6.05,1.62c1.7,0,3.28-0.32,4.74-0.95
		c1.45-0.64,2.72-1.52,3.8-2.64s1.93-2.43,2.54-3.9c0.61-1.48,0.92-3.05,0.92-4.7c-0.02-2.2-0.55-4.23-1.57-6.07
		s-2.43-3.32-4.23-4.43C51.47,24.29,49.45,23.73,47.2,23.73z"/>
</g>
</svg>
