<?xml version="1.0" encoding="utf-8"?>
<!-- Generator: Adobe Illustrator 26.0.2, SVG Export Plug-In . SVG Version: 6.00 Build 0)  -->
<svg version="1.1" id="Layer_1" xmlns="http://www.w3.org/2000/svg" xmlns:xlink="http://www.w3.org/1999/xlink" x="0px" y="0px"
	 viewBox="0 0 512 512" style="enable-background:new 0 0 512 512;" xml:space="preserve">
<style type="text/css">
	.st0{fill:url(#SVGID_1_);}
</style>
<linearGradient id="SVGID_1_" gradientUnits="userSpaceOnUse" x1="256" y1="512.3919" x2="256" y2="0.3872">
	<stop  offset="0" style="stop-color:#32A1E5"/>
	<stop  offset="1" style="stop-color:#39B4FF"/>
</linearGradient>
<path class="st0" d="M507.9,211.49c-9.93-59.01-38-108.66-83.25-147.52C359.82,8.32,284.59-10.99,200.99,6.79
	C87.89,30.83,1.36,130.95,0.34,255.26c-0.68,83.48-0.09,166.97-0.24,250.46c-0.01,5.23,1.47,6.68,6.67,6.66
	c42.55-0.2,85.11-0.11,127.66-0.11c40.03,0,80.07,0.38,120.09-0.19c15.59-0.22,31.33-1.53,46.69-4.19
	c59.55-10.33,109.55-38.61,148.62-84.51C502.02,362.08,521.26,290.9,507.9,211.49z M348.08,398.07L256,349.66l-92.08,48.41
	l17.59-102.56l-74.49-72.58l102.94-14.91L256,114.71l46.04,93.31l102.94,14.91l-74.49,72.58L348.08,398.07z"/>
</svg>
