<?xml version="1.0" encoding="utf-8"?>
<!-- Generator: Adobe Illustrator 26.0.2, SVG Export Plug-In . SVG Version: 6.00 Build 0)  -->
<svg version="1.1" id="Layer_1" xmlns="http://www.w3.org/2000/svg" xmlns:xlink="http://www.w3.org/1999/xlink" x="0px" y="0px"
	 viewBox="0 0 300 91" style="enable-background:new 0 0 300 91;" xml:space="preserve">
<style type="text/css">
	.st0{display:none;}
	.st1{display:inline;fill:#ED1C2E;}
	.st2{display:inline;}
	.st3{display:inline;fill-rule:evenodd;clip-rule:evenodd;fill:none;}
	.st4{fill-rule:evenodd;clip-rule:evenodd;fill:#F8991D;}
	.st5{fill-rule:evenodd;clip-rule:evenodd;fill:#010101;}
	.st6{fill:#FFB71B;}
	.st7{fill:#0071CE;}
	.st8{fill:#EF3A3F;}
	.st9{fill:#0067B3;}
	.st10{fill:#FBAD18;}
	.st11{display:inline;fill:#6AB945;}
	.st12{fill:url(#SVGID_1_);}
	.st13{fill:url(#SVGID_00000032638081107196285910000002088333327936255619_);}
	.st14{fill:url(#SVGID_00000162331650139781983920000009556978005060334481_);}
	.st15{fill:url(#SVGID_00000150803409766232067190000014040057992502672521_);}
</style>
<g class="st0">
	<path class="st1" d="M39.66,54.6c5.77,0,10.45-4.68,10.45-10.45c0-5.77-4.68-10.45-10.45-10.45c-5.77,0-10.45,4.68-10.45,10.45
		C29.21,49.92,33.89,54.6,39.66,54.6L39.66,54.6z M39.66,64.48c11.12,0,20.13-9.01,20.13-20.13c0-11.12-9.01-20.13-20.13-20.13
		c-11.12,0-20.13,9.01-20.13,20.13C19.53,55.46,28.55,64.48,39.66,64.48L39.66,64.48z M9.35,44.34c0-16.74,13.57-30.31,30.31-30.31
		c16.74,0,30.31,13.57,30.31,30.31c0,16.74-13.57,30.31-30.31,30.31C22.92,74.65,9.35,61.08,9.35,44.34L9.35,44.34z"/>
	<polygon class="st2" points="79.82,22.59 114.36,22.59 114.36,31.3 102.48,31.3 102.48,66.23 91.92,66.23 91.92,31.37 79.82,31.37 
		79.82,22.59 	"/>
	<path class="st2" d="M166.38,31.37h-9.68v8.71c0,0,7.55,0.03,8.68,0c3.03-0.06,5.38-1.42,5.38-4.39
		C170.76,32.46,168.77,31.37,166.38,31.37L166.38,31.37z M146.62,22.59c0,0,7.94,0,20.5,0c11.65,0,13.27,7.97,13.27,12.62
		c0,6.75-5.81,10.14-6.33,10.27c0,0,5.1,1.9,5.1,7.68v8.13c0,3.26,2,4.16,2.36,4.94h-8.33c-3.97-0.45-3.91-3.61-3.87-5.42v-7
		c-0.1-1.71-0.61-3.62-4.2-3.68h-8.42v16.11h-10.1L146.62,22.59L146.62,22.59z"/>
	<polygon class="st2" points="224.93,22.59 224.93,66.23 256.37,66.23 256.37,57.26 235.2,57.26 235.2,47.5 253.27,47.5 
		253.27,39.24 235.2,39.24 235.2,31.37 256.37,31.37 256.37,22.59 224.93,22.59 	"/>
	<polygon class="st2" points="257.86,31.37 270.32,31.37 270.32,66.23 280.65,66.23 280.65,31.37 293.3,31.37 293.3,22.59 
		257.86,22.59 257.86,31.37 	"/>
	<path class="st2" d="M125.27,37.99l-3.71,11.26h7.65L125.27,37.99L125.27,37.99z M119.42,22.58h11.2l15.26,43.65h-10.86l-3.15-9.07
		h-12.88l-2.97,9.07h-10.77L119.42,22.58L119.42,22.58z"/>
	<path class="st2" d="M221.32,41.86h-18.75v8.49h8.91c-0.02,1.75,0.26,3.49-1.83,5.94c-0.71,0.84-3.15,2.71-6.56,2.71
		c-2.87,0-4.94-0.82-6.73-2.34c-3.96-3.36-4.89-9.64-4.89-12.93c0-4.13,1.64-14.39,11.75-14.82c0,0,6.81-0.44,8.59,7.78h9.46
		c-0.19-4.16-5.04-15.86-18.04-15.88c-4.49-0.01-10.19,1.35-14.91,6.07c-3.42,3.42-6.49,9.17-6.49,17.27
		c0,8.78,3.23,14.49,6.19,17.63c5.19,5.51,10.42,5.93,13.14,5.93c2.16,0,6.29-0.32,11.65-3.94l1.42,2.45h7.1V41.86L221.32,41.86z"/>
	<path class="st2" d="M285.44,63.36h0.54c0.35,0,0.6-0.05,0.6-0.43c0-0.33-0.35-0.38-0.63-0.38h-0.51V63.36L285.44,63.36z
		 M284.82,62.07h1.16c0.77,0,1.21,0.24,1.21,0.91c0,0.57-0.35,0.78-0.81,0.82l0.82,1.35h-0.64l-0.75-1.32h-0.38v1.32h-0.61V62.07
		L284.82,62.07z M285.92,65.79c1.14,0,2.07-0.91,2.07-2.17c0-1.25-0.93-2.15-2.07-2.15c-1.16,0-2.08,0.9-2.08,2.15
		C283.84,64.87,284.76,65.79,285.92,65.79L285.92,65.79z M285.92,60.87c1.49,0,2.82,1.07,2.82,2.74c0,1.68-1.33,2.76-2.82,2.76
		c-1.49,0-2.83-1.08-2.83-2.76C283.1,61.94,284.43,60.87,285.92,60.87L285.92,60.87z"/>
	<polygon class="st3" points="0,7.96 300,7.96 300,83.04 0,83.04 0,7.96 0,7.96 	"/>
</g>
<g class="st0">
	<g class="st2">
		<path class="st4" d="M174.33,62.68c-11.74,8.67-28.76,13.27-43.42,13.27c-20.54,0-39.04-7.59-53.04-20.23
			c-1.1-0.99-0.12-2.35,1.2-1.58c15.1,8.79,33.78,14.08,53.07,14.08c13.01,0,27.32-2.7,40.48-8.28
			C174.61,59.09,176.27,61.24,174.33,62.68z"/>
		<path class="st4" d="M179.22,57.1c-1.5-1.92-9.93-0.91-13.71-0.46c-1.15,0.14-1.32-0.86-0.29-1.59
			c6.72-4.72,17.73-3.36,19.01-1.78c1.29,1.59-0.34,12.64-6.64,17.9c-0.97,0.81-1.89,0.38-1.46-0.69
			C177.55,66.95,180.72,59.02,179.22,57.1z"/>
	</g>
	<g class="st2">
		<path class="st5" d="M165.77,21.7v-4.59c0-0.7,0.53-1.16,1.16-1.16l20.56,0c0.66,0,1.19,0.48,1.19,1.16v3.93
			c-0.01,0.66-0.56,1.52-1.55,2.89l-10.65,15.21c3.95-0.09,8.13,0.5,11.73,2.52c0.81,0.45,1.03,1.13,1.09,1.79v4.9
			c0,0.67-0.74,1.45-1.51,1.05c-6.33-3.31-14.72-3.68-21.72,0.04c-0.71,0.38-1.46-0.39-1.46-1.06v-4.65c0-0.75,0.01-2.02,0.77-3.15
			l12.34-17.7l-10.74,0C166.3,22.86,165.77,22.39,165.77,21.7z"/>
		<path class="st5" d="M90.77,50.35h-6.25c-0.6-0.04-1.07-0.49-1.12-1.06l0.01-32.1c0-0.64,0.54-1.16,1.21-1.16l5.82,0
			c0.61,0.03,1.1,0.49,1.14,1.08v4.19h0.12c1.52-4.05,4.38-5.95,8.23-5.95c3.91,0,6.36,1.89,8.12,5.95
			c1.52-4.05,4.96-5.95,8.64-5.95c2.63,0,5.49,1.08,7.24,3.51c1.98,2.7,1.58,6.62,1.58,10.07l-0.01,20.26
			c0,0.64-0.54,1.16-1.21,1.16h-6.25c-0.63-0.04-1.12-0.54-1.12-1.15l0-17.02c0-1.35,0.12-4.73-0.18-6.01
			c-0.47-2.16-1.87-2.77-3.68-2.77c-1.52,0-3.1,1.01-3.74,2.63c-0.64,1.62-0.58,4.32-0.58,6.15V49.2c0,0.64-0.54,1.16-1.21,1.16
			h-6.25c-0.63-0.04-1.12-0.54-1.12-1.15l-0.01-17.02c0-3.58,0.58-8.85-3.85-8.85c-4.5,0-4.32,5.13-4.32,8.85l0,17.02
			C91.98,49.84,91.44,50.35,90.77,50.35z"/>
		<path class="st5" d="M206.38,15.36c9.28,0,14.3,7.97,14.3,18.1c0,9.79-5.55,17.56-14.3,17.56c-9.11,0-14.07-7.97-14.07-17.9
			C192.31,23.13,197.33,15.36,206.38,15.36z M206.43,21.91c-4.61,0-4.9,6.28-4.9,10.2c0,3.92-0.06,12.29,4.85,12.29
			c4.85,0,5.08-6.76,5.08-10.87c0-2.7-0.12-5.95-0.94-8.51C209.82,22.79,208.42,21.91,206.43,21.91z"/>
		<path class="st5" d="M232.72,50.35h-6.23c-0.63-0.04-1.12-0.54-1.12-1.15l-0.01-32.11c0.05-0.59,0.57-1.05,1.2-1.05l5.8,0
			c0.55,0.03,1,0.4,1.11,0.9v4.91h0.12c1.75-4.39,4.2-6.49,8.52-6.49c2.8,0,5.55,1.01,7.3,3.78c1.63,2.57,1.63,6.89,1.63,10v20.2
			c-0.07,0.57-0.58,1.01-1.2,1.01h-6.27c-0.58-0.04-1.05-0.46-1.11-1.01V31.91c0-3.51,0.41-8.65-3.91-8.65
			c-1.52,0-2.92,1.01-3.62,2.57c-0.88,1.96-0.99,3.92-0.99,6.08V49.2C233.93,49.84,233.39,50.35,232.72,50.35z"/>
		<path class="st5" d="M149.38,35.02c0,2.44,0.06,4.47-1.17,6.64c-0.99,1.76-2.57,2.84-4.33,2.84c-2.4,0-3.8-1.83-3.8-4.54
			c0-5.33,4.78-6.3,9.3-6.3V35.02z M155.69,50.27c-0.41,0.37-1.01,0.4-1.48,0.15c-2.08-1.73-2.45-2.52-3.59-4.17
			c-3.43,3.5-5.86,4.55-10.31,4.55c-5.27,0-9.36-3.25-9.36-9.75c0-5.08,2.75-8.53,6.67-10.22c3.39-1.49,8.13-1.76,11.76-2.17v-0.81
			c0-1.49,0.12-3.25-0.76-4.54c-0.76-1.15-2.22-1.63-3.51-1.63c-2.39,0-4.51,1.22-5.03,3.76c-0.11,0.56-0.52,1.12-1.09,1.15
			l-6.06-0.66c-0.51-0.12-1.08-0.53-0.93-1.31c1.39-7.35,8.04-9.58,13.99-9.58c3.04,0,7.02,0.81,9.42,3.11
			c3.04,2.84,2.75,6.64,2.75,10.77v9.74c0,2.93,1.22,4.22,2.36,5.8c0.4,0.57,0.49,1.25-0.02,1.66c-1.28,1.07-3.55,3.04-4.8,4.15
			L155.69,50.27z"/>
		<path class="st5" d="M67.39,35.02c0,2.44,0.06,4.47-1.17,6.64c-0.99,1.76-2.57,2.84-4.33,2.84c-2.4,0-3.8-1.83-3.8-4.54
			c0-5.33,4.78-6.3,9.3-6.3V35.02z M73.69,50.27c-0.41,0.37-1.01,0.4-1.48,0.15c-2.08-1.73-2.45-2.52-3.59-4.17
			c-3.43,3.5-5.87,4.55-10.31,4.55c-5.27,0-9.36-3.25-9.36-9.75c0-5.08,2.75-8.53,6.67-10.22c3.39-1.49,8.13-1.76,11.76-2.17v-0.81
			c0-1.49,0.12-3.25-0.76-4.54c-0.76-1.15-2.22-1.63-3.51-1.63c-2.39,0-4.51,1.22-5.03,3.76C57.98,26,57.57,26.56,57,26.59
			l-6.06-0.66c-0.51-0.12-1.08-0.53-0.93-1.31c1.39-7.35,8.03-9.58,13.99-9.58c3.04,0,7.02,0.81,9.42,3.11
			c3.04,2.84,2.75,6.64,2.75,10.77v9.74c0,2.93,1.22,4.22,2.36,5.8c0.4,0.57,0.49,1.25-0.02,1.66c-1.28,1.07-3.55,3.04-4.8,4.15
			L73.69,50.27z"/>
	</g>
</g>
<g class="st0">
	<g class="st2">
		<g>
			<g>
				<g>
					<g>
						<path class="st6" d="M246.67,35.62c1.42,0,2.58-0.74,2.74-1.69l1.4-15.82c0-1.56-1.83-2.85-4.14-2.85
							c-2.3,0-4.13,1.28-4.13,2.85l1.4,15.82C244.09,34.89,245.26,35.62,246.67,35.62L246.67,35.62z"/>
						<path class="st6" d="M238.12,40.57c0.71-1.23,0.66-2.6-0.09-3.21l-13-9.12c-1.35-0.78-3.38,0.16-4.53,2.15
							c-1.15,1.99-0.95,4.22,0.4,5l14.39,6.7C236.19,42.42,237.42,41.78,238.12,40.57L238.12,40.57z"/>
						<path class="st6" d="M255.22,40.56c0.71,1.22,1.93,1.87,2.83,1.53l14.4-6.7c1.36-0.78,1.55-3.01,0.4-5
							c-1.16-1.99-3.19-2.94-4.53-2.15l-13,9.12C254.58,37.96,254.52,39.34,255.22,40.56L255.22,40.56z"/>
					</g>
					<g>
						<path class="st6" d="M246.67,55.38c1.42,0,2.58,0.73,2.74,1.68l1.4,15.82c0,1.57-1.83,2.85-4.14,2.85
							c-2.3,0-4.13-1.28-4.13-2.85l1.4-15.82C244.09,56.11,245.26,55.38,246.67,55.38L246.67,55.38z"/>
						<path class="st6" d="M255.22,50.44c0.71-1.23,1.93-1.86,2.83-1.53l14.4,6.69c1.36,0.78,1.55,3.01,0.4,5.01
							c-1.16,1.99-3.19,2.93-4.53,2.15l-13-9.11C254.58,53.04,254.52,51.66,255.22,50.44L255.22,50.44z"/>
						<path class="st6" d="M238.12,50.44c0.71,1.22,0.66,2.6-0.09,3.22l-13,9.11c-1.35,0.78-3.38-0.16-4.53-2.15
							c-1.15-1.99-0.95-4.22,0.4-5.01l14.39-6.69C236.19,48.58,237.42,49.21,238.12,50.44L238.12,50.44z"/>
					</g>
				</g>
			</g>
			<g>
				<path class="st7" d="M171.78,47.32c0-5.97-2.55-11.23-11.17-11.23c-4.43,0-7.94,1.24-9.86,2.35l1.4,4.8
					c1.75-1.11,4.54-2.02,7.19-2.02c4.37-0.01,5.09,2.48,5.09,4.07v0.38c-9.53-0.01-15.56,3.29-15.56,10.01
					c0,4.11,3.07,7.96,8.4,7.96c3.28,0,6.03-1.31,7.67-3.41h0.16c0,0,1.09,4.55,7.09,2.81c-0.32-1.9-0.42-3.92-0.42-6.35V47.32z
					 M164.66,53.63c0,0.49-0.04,0.99-0.18,1.43c-0.55,1.83-2.44,3.37-4.81,3.37c-1.97,0-3.54-1.12-3.54-3.49
					c0-3.62,3.99-4.62,8.52-4.6V53.63z"/>
				<path class="st7" d="M23.26,27.96c0,0,6.23,25.53,7.22,29.67c1.16,4.84,3.25,6.62,9.28,5.42l3.89-15.83
					c0.99-3.93,1.65-6.73,2.28-10.73h0.11c0.45,4.04,1.08,6.81,1.89,10.75c0,0,1.58,7.18,2.39,10.96c0.81,3.77,3.08,6.15,8.98,4.86
					l9.27-35.08h-7.48l-3.16,15.17c-0.85,4.41-1.62,7.87-2.22,11.9H55.6c-0.54-4-1.23-7.31-2.09-11.61l-3.29-15.46h-7.8l-3.52,15.07
					c-1,4.58-1.93,8.28-2.53,12.18h-0.11c-0.61-3.67-1.42-8.32-2.3-12.75c0,0-2.09-10.78-2.83-14.49H23.26z"/>
				<path class="st7" d="M89.84,47.32c0-5.97-2.55-11.23-11.17-11.23c-4.43,0-7.94,1.24-9.86,2.35l1.4,4.8
					c1.75-1.11,4.54-2.02,7.19-2.02c4.38-0.01,5.09,2.48,5.09,4.07v0.38c-9.54-0.01-15.56,3.29-15.56,10.01
					c0,4.11,3.07,7.96,8.4,7.96c3.28,0,6.03-1.31,7.67-3.41h0.16c0,0,1.09,4.55,7.09,2.81c-0.32-1.9-0.42-3.92-0.42-6.35V47.32z
					 M82.72,53.63c0,0.49-0.04,0.99-0.18,1.43c-0.55,1.83-2.44,3.37-4.81,3.37c-1.97,0-3.54-1.12-3.54-3.49
					c0-3.62,3.99-4.62,8.52-4.6V53.63z"/>
				<polygon class="st7" points="101.71,55.59 101.71,27.96 94.59,27.96 94.59,63.04 101.71,63.04 				"/>
				<path class="st7" d="M194.92,27.96c0,3.37,0,25.88,0,25.88c0,3.57,0.67,6.07,2.11,7.59c1.26,1.34,3.32,2.2,5.8,2.2
					c2.11,0,4.18-0.4,5.16-0.76l-0.09-5.57c-0.73,0.18-1.56,0.32-2.71,0.32c-2.43,0-3.24-1.55-3.24-4.76v-9.9h6.2v-6.71h-6.2v-8.3
					H194.92z"/>
				<path class="st7" d="M176.53,36.69v26.36h7.35v-13.5c0-0.73,0.04-1.36,0.16-1.95c0.54-2.83,2.71-4.63,5.81-4.63
					c0.85,0,1.46,0.09,2.12,0.19v-6.9c-0.55-0.11-0.93-0.16-1.62-0.16c-2.74,0-5.86,1.77-7.17,5.57h-0.2v-4.97H176.53z"/>
				<path class="st7" d="M106.7,36.69v26.36h7.16V47.59c0-0.72,0.08-1.49,0.34-2.16c0.59-1.56,2.04-3.38,4.35-3.38
					c2.89,0,4.24,2.44,4.24,5.97v15.02h7.15V47.4c0-0.69,0.09-1.52,0.3-2.14c0.59-1.77,2.15-3.21,4.3-3.21
					c2.93,0,4.34,2.4,4.34,6.55c0,0,0,11.13,0,14.44h7.16V47.52c0-8.19-4.16-11.43-8.85-11.43c-2.08,0-3.72,0.52-5.2,1.43
					c-1.25,0.77-2.36,1.85-3.34,3.28h-0.11c-1.13-2.84-3.79-4.71-7.26-4.71c-4.46,0-6.46,2.26-7.68,4.18h-0.11v-3.58H106.7z"/>
			</g>
		</g>
	</g>
	<g class="st2">
		<path class="st6" d="M275.5,61.44c0.7,0,1.25,0.55,1.25,1.22c0,0.69-0.55,1.23-1.25,1.23c-0.7,0-1.26-0.54-1.26-1.23
			C274.23,61.99,274.79,61.44,275.5,61.44L275.5,61.44z M275.48,61.69c-0.54,0-0.94,0.44-0.94,0.98c0,0.55,0.4,0.98,0.96,0.98
			c0.54,0.01,0.93-0.43,0.93-0.98C276.43,62.13,276.03,61.69,275.48,61.69L275.48,61.69z M275.3,63.3h-0.28v-1.22
			c0.11-0.02,0.27-0.04,0.47-0.04c0.23,0,0.34,0.04,0.43,0.1c0.07,0.05,0.12,0.15,0.12,0.26c0,0.14-0.1,0.25-0.25,0.29v0.02
			c0.12,0.04,0.19,0.13,0.22,0.3c0.04,0.19,0.06,0.26,0.09,0.3h-0.31c-0.04-0.04-0.06-0.15-0.1-0.29c-0.02-0.13-0.1-0.19-0.25-0.19
			h-0.13V63.3z M275.3,62.61h0.13c0.16,0,0.28-0.05,0.28-0.18c0-0.11-0.08-0.19-0.26-0.19c-0.07,0-0.13,0.01-0.16,0.01V62.61z"/>
	</g>
</g>
<g class="st0">
	<g class="st2">
		<g>
			<path class="st8" d="M89.84,28.57c-18.91,0-19.64,14.71-19.54,18.53c0,0-0.93,17.21,19.08,17.21c17.19,0,18.04-10.8,18.04-10.8
				l-7.91,0.02c0,0-1.54,5.95-10.1,5.79c-11-0.2-11.43-10.86-11.43-10.86h30.47C108.45,48.46,110.77,28.58,89.84,28.57z
				 M78.24,43.24c0,0,0.54-9.64,11.42-9.64c10.83,0,10.83,9.64,10.83,9.64H78.24z"/>
		</g>
	</g>
	<g class="st2">
		<g>
			<path class="st9" d="M129.62,28.57c-9.51-0.05-13.6,5.63-13.6,5.63V15.19h-7.62l0.13,40.18c0,0-0.05,4.68-0.33,7.77h7.4
				l0.32-4.51c0,0,3.45,5.68,13.54,5.68c10.09,0,18.06-6.21,18.27-17.74C147.94,35.05,139.12,28.63,129.62,28.57z M127.87,59.18
				c-12,0.15-11.81-12.73-11.81-12.73s-0.44-12.4,11.79-12.72c12.23-0.32,11.83,12.98,11.83,12.98S139.88,59.02,127.87,59.18z"/>
		</g>
	</g>
	<g class="st2">
		<g>
			<path class="st10" d="M182.94,55.21c0.02-5.2,0.17-9.84,0-13.11c-0.2-3.8,0.16-12.96-16.25-13.63c0,0-15.73-1.43-17.37,10.28
				h8.05c0,0,0.62-5.36,8.79-5.21c7.73,0.15,9.13,3.94,9.09,8.6c0,0-6.62,0.02-8.83,0.03c-3.98,0.02-17.92,0.46-19.22,8.95
				c-1.55,10.09,7.46,13.24,14.51,13.2c7.05-0.04,11.07-2.15,14.06-5.93l0.32,4.7l7.01-0.04C183.1,63.04,182.91,60.41,182.94,55.21z
				 M163.02,59.45c0,0-7.64,0.01-8.09-6.09c-0.48-6.51,11.75-6.12,11.75-6.12l8.64-0.01C175.32,47.23,176.72,59.63,163.02,59.45z"/>
		</g>
	</g>
	<polygon class="st11" points="178.77,29.85 187.61,29.85 200.54,55.63 213.5,29.85 221.49,29.85 198.1,75.81 189.55,75.81 
		196.32,63.04 	"/>
	<g class="st2">
		<path d="M224.48,31.69v-0.95h-0.29v-0.36h0.29v-0.5h0.53v0.5h0.62v0.36h-0.62v0.89c0,0.16,0.1,0.23,0.29,0.23
			c0.12,0,0.23-0.02,0.33-0.06v0.34c-0.13,0.06-0.28,0.09-0.48,0.09C224.76,32.22,224.48,32.08,224.48,31.69z"/>
		<path d="M226.18,30.38h0.53v0.27c0.15-0.16,0.35-0.31,0.71-0.31c0.33,0,0.57,0.13,0.69,0.32c0.18-0.19,0.43-0.32,0.78-0.32
			c0.5,0,0.81,0.25,0.81,0.69v1.15h-0.53v-1.03c0-0.29-0.17-0.44-0.47-0.44c-0.29,0-0.5,0.16-0.5,0.45v1.02h-0.53v-1.03
			c0-0.28-0.18-0.44-0.47-0.44c-0.29,0-0.5,0.17-0.5,0.45v1.02h-0.53V30.38z"/>
	</g>
</g>
<g>
	<g>
		<linearGradient id="SVGID_1_" gradientUnits="userSpaceOnUse" x1="107.4001" y1="15.0212" x2="107.4001" y2="61.1635">
			<stop  offset="0" style="stop-color:#DA7027"/>
			<stop  offset="1" style="stop-color:#C54927"/>
		</linearGradient>
		<path class="st12" d="M89.37,16.89c-0.03-0.64,0.21-1.16,1.07-1.16c0.86,0,9.55,0.28,15.4,0.28c12.12,0,15.03-0.98,17.11-0.98
			c1.16,0.03,1.41,0.92,1.41,1.44c0,0.52-0.55,1.62-0.55,3.06c0,1.44,0.34,2.97,0.34,4.23c0,1.26-1.07,1.68-1.65,1.68
			c-0.58,0-0.95-0.21-0.98-1.29c-0.06-2.05,1.44-5.02-13.29-5.02c-7.5,0-7.68,0.86-7.68,3.25c0,2.39,0.06,10.29,0.06,11.51
			c0,1.22,0.37,1.59,1.35,1.59c0.98,0,8.66,0,10.75,0s4.19-1.13,4.44-4.07c0.09-1.56,0.52-1.62,1.29-1.62
			c0.77,0,1.47,0.61,1.35,2.08c-0.12,1.47-0.43,3.03-0.43,5.14c0,2.11,0.43,4.19,0.43,5.73c0,1.53-2.02,1.9-2.42,0.25
			c-0.4-1.65-0.98-4.44-5.69-4.44c-4.71,0-8.51,0-9.55,0c-1.04,0-1.56,0.58-1.56,2.3c0,1.71,0,10.1,0,12.22
			c0,2.11,0.64,4.38,4.93,4.38c4.29,0,12.06,0.46,15.61-2.33c1.53-1.26,1.99-3,2.51-5.85c0.24-1.32,3.09-1.29,2.97,1.75
			c-0.09,1.41-1.44,4.43-1.44,6.37c0,1.62,0.37,3.79-1.13,3.79c-1.27,0-0.73-0.65-6.31-0.65c-5.57,0-24.8,0.12-28.01,0.12
			c-1.19,0-1.44-0.34-1.44-1.07c0-0.73,0.43-1.29,1.44-1.29c1.01,0,5.3,0.06,5.3-5.39c0-5.45,0-25.38,0-28.32s-0.64-5.88-4.26-6.25
			C89.3,18.21,89.4,17.59,89.37,16.89z"/>
		
			<linearGradient id="SVGID_00000060722776993953080660000017523947293743958444_" gradientUnits="userSpaceOnUse" x1="138.6632" y1="22.6171" x2="138.6632" y2="61.5273">
			<stop  offset="0" style="stop-color:#DA7027"/>
			<stop  offset="1" style="stop-color:#C54927"/>
		</linearGradient>
		<path style="fill:url(#SVGID_00000060722776993953080660000017523947293743958444_);" d="M128.68,34.02
			c0-0.92,0.49-1.31,1.59-1.67c2.08-0.8,4.47-3.12,6.49-8.63c0.64-1.75,2.85-1.29,2.57,0.49c-0.28,1.78-0.67,5.05-0.67,6.92
			c0.95,0,7.99,0,8.88,0c0.89,0,1.04,1.07,1.04,1.93c0,0.86-0.25,1.56-1.01,1.56c-0.83,0-8.91,0-8.91,0s0,9.83,0,15.37
			c0,5.54,1.9,6.83,4.44,6.83c1.47,0,2.66-0.58,3.77-1.35c0.73-0.55,2.39,0.76,1.56,1.84c-0.83,1.07-3.74,4.23-7.9,4.23
			c-4.16,0-7.16-3.09-7.1-8.27c0.06-5.17,0.28-13.81,0.28-15s-1.56-2.88-3.31-2.88C128.95,35.35,128.68,34.6,128.68,34.02z"/>
		
			<linearGradient id="SVGID_00000096780901377122579370000004669399638449960605_" gradientUnits="userSpaceOnUse" x1="164.4506" y1="30.054" x2="164.4506" y2="61.5886">
			<stop  offset="0" style="stop-color:#DA7027"/>
			<stop  offset="1" style="stop-color:#C54927"/>
		</linearGradient>
		<path style="fill:url(#SVGID_00000096780901377122579370000004669399638449960605_);" d="M164.71,30.24
			c2.88,0,5.11,1.01,6.06,1.01c0.95,0,1.32-1.19,2.36-1.19c1.04,0,1.29,1.19,1.01,2.2c-0.28,1.01-0.46,3.4-0.34,6.06
			c0.03,0.92-0.7,1.47-1.44,1.47s-1.01-0.31-1.32-1.71c-0.31-1.41-1.56-4.81-6.52-4.81c-3.58,0-4.96,2.39-4.96,3.95
			c0,1.56,0.84,3.05,4.65,4.71c4.01,1.75,11.42,3.61,11.42,10.72c-0.25,6.67-6.86,8.79-10.75,8.79c-3.28,0-6.34-0.98-7.68-0.98
			s-1.87,1.13-2.72,1.13c-0.86,0-1.47-0.98-1.13-1.99c0.34-1.01,0.77-1.78,0.77-2.79s-0.58-3.37-0.25-5.33
			c0.34-1.96,2.97-2.23,2.94-0.34c-0.03,1.9,0.83,7.32,7.68,7.32c5.54,0,6.18-3.86,6.18-4.96c0-1.35-0.28-3.28-6.92-5.91
			c-6.64-2.63-9.22-5.08-9.22-9.28C154.55,34.13,158.28,30.24,164.71,30.24z"/>
		
			<linearGradient id="SVGID_00000005262551165012368010000006030992768126499487_" gradientUnits="userSpaceOnUse" x1="194.6693" y1="31.0029" x2="194.6693" y2="75.9788">
			<stop  offset="0" style="stop-color:#DA7027"/>
			<stop  offset="1" style="stop-color:#C54927"/>
		</linearGradient>
		<path style="fill:url(#SVGID_00000005262551165012368010000006030992768126499487_);" d="M177.57,32.01
			c0-0.64,0.03-0.95,0.77-0.95c0.73,0,4.62,0.12,6.67,0.12c2.05,0,5.82-0.12,6.58-0.12c0.55,0,0.4,0.67,0.4,1.13
			c0,0.46,0.06,1.22-0.92,1.22c-0.98,0-2.82,0.34-2.82,1.96c0,1.62,0.43,2.08,1.07,3.83c0.7,1.93,5.79,13.59,5.79,13.59
			s3.98-8.17,5.17-10.47c1.19-2.3,1.93-5.17,1.93-6.46s-1.32-2.14-2.42-2.36c-1.1-0.21-1.65-0.15-1.65-1.47
			c0-0.67,0.12-1.04,0.67-1.04c0.55,0,3.86,0.21,6.31,0.21c2.45,0,5.3-0.15,6.09-0.15c0.73,0,0.52,0.61,0.52,1.13
			c0,0.52-0.06,1.04-0.7,1.13c-0.64,0.09-3.49-0.03-6.46,6.28c-2.97,6.31-8.85,19.01-13.1,27.28c-2.2,4.35-6.37,9.09-10.72,9.09
			c-2.27,0.03-3.15-1.93-3.15-2.91s0.55-2.57,3.12-2.57c1.71,0,2.17,0.83,3,0.83c1.71,0,6.06-4.16,7.29-11.63
			c0.18-1.71-1.58-5.91-2.27-7.81c-1.02-2.82-4.12-10.98-6.37-15.83c-0.77-1.66-2.79-2.51-4.07-2.66
			C177.69,33.27,177.57,33.05,177.57,32.01z"/>
	</g>
</g>
</svg>
