<?xml version="1.0" encoding="utf-8"?>
<!-- Generator: Adobe Illustrator 26.0.2, SVG Export Plug-In . SVG Version: 6.00 Build 0)  -->
<svg version="1.1" id="Layer_1" xmlns="http://www.w3.org/2000/svg" xmlns:xlink="http://www.w3.org/1999/xlink" x="0px" y="0px"
	 viewBox="0 0 2994.61 473.11" style="enable-background:new 0 0 2994.61 473.11;" xml:space="preserve">
<style type="text/css">
	.st0{fill:url(#SVGID_1_);}
</style>
<g>
	<path d="M719.13,183.91c-1.37-5.07-3.38-9.56-6.04-13.46c-2.66-3.9-5.92-7.22-9.78-9.96c-3.86-2.74-8.29-4.81-13.28-6.22
		c-4.99-1.41-10.46-2.11-16.42-2.11c-11.99,0-22.36,2.9-31.09,8.69c-8.73,5.79-15.48,14.23-20.22,25.29
		c-4.75,11.07-7.12,24.49-7.12,40.27c0,15.86,2.29,29.38,6.88,40.57c4.59,11.19,11.23,19.72,19.92,25.6
		c8.69,5.88,19.24,8.81,31.63,8.81c10.95,0,20.22-1.79,27.83-5.37c7.61-3.58,13.38-8.67,17.33-15.27c3.94-6.6,5.92-14.37,5.92-23.3
		l11.11,1.33h-60.13v-43.59h106.61v32.72c0,22.14-4.69,41.09-14.07,56.87c-9.38,15.78-22.26,27.89-38.64,36.34
		c-16.38,8.45-35.2,12.68-56.45,12.68c-23.59,0-44.31-5.11-62.18-15.33c-17.87-10.22-31.8-24.81-41.78-43.77
		c-9.98-18.96-14.97-41.47-14.97-67.55c0-20.28,3.02-38.29,9.06-54.03c6.04-15.74,14.47-29.08,25.29-40.03
		c10.83-10.95,23.38-19.24,37.67-24.87c14.29-5.63,29.68-8.45,46.18-8.45c14.33,0,27.67,2.05,40.02,6.16
		c12.35,4.11,23.3,9.9,32.84,17.39c9.54,7.49,17.28,16.38,23.24,26.68c5.96,10.3,9.66,21.61,11.11,33.93H719.13z"/>
	<path d="M817.53,350.41V103.13h172.41v48.54H877.3v50.71h103.84v48.66H877.3v50.83h112.65v48.54H817.53z"/>
	<path d="M1019.28,151.67v-48.54h209v48.54h-74.98v198.74h-58.92V151.67H1019.28z"/>
	<path d="M1257.62,350.41V103.13h102.14c18.51,0,34.51,3.32,47.99,9.96c13.48,6.64,23.89,16.14,31.21,28.5
		c7.32,12.36,10.99,26.98,10.99,43.89c0,17.15-3.74,31.69-11.23,43.65c-7.49,11.95-18.11,21.05-31.88,27.29
		c-13.76,6.24-30.06,9.36-48.9,9.36h-64.59v-47.09h53.49c9.01,0,16.56-1.19,22.64-3.56c6.08-2.37,10.69-6,13.82-10.87
		c3.14-4.87,4.71-11.13,4.71-18.78c0-7.65-1.57-13.98-4.71-19.02c-3.14-5.03-7.77-8.81-13.88-11.35c-6.12-2.54-13.64-3.8-22.58-3.8
		h-29.46v199.1H1257.62z M1396.83,237.4l61.58,113.01h-65.2l-60.37-113.01H1396.83z"/>
	<path d="M1482.68,350.41V103.13h172.41v48.54h-112.65v50.71h103.83v48.66h-103.83v50.83h112.65v48.54H1482.68z"/>
	<path d="M1748.66,103.13l55.3,181.11h2.05l55.3-181.11h66.89l-83.43,247.27h-79.57l-83.43-247.27H1748.66z"/>
	<path d="M2014.65,103.13v247.27h-59.77V103.13H2014.65z"/>
	<path d="M2052.07,350.41V103.13h172.41v48.54h-112.65v50.71h103.83v48.66h-103.83v50.83h112.65v48.54H2052.07z"/>
	<path d="M2321.2,350.41l-71.96-247.27h66.04l37.31,162.03h2.05l42.62-162.03h53.85l42.62,162.39h2.05l37.43-162.39h65.92
		l-71.84,247.27h-57.59l-44.55-149.96h-1.93l-44.55,149.96H2321.2z"/>
	<path d="M2754.41,177.27c-0.81-8.85-4.37-15.76-10.69-20.71c-6.32-4.95-15.31-7.43-26.98-7.43c-7.73,0-14.17,1.01-19.32,3.02
		c-5.15,2.01-9.02,4.77-11.59,8.27c-2.58,3.5-3.91,7.51-3.98,12.01c-0.16,3.7,0.58,6.96,2.23,9.78c1.65,2.82,4.06,5.29,7.24,7.43
		c3.18,2.13,7.02,4,11.53,5.61c4.51,1.61,9.58,3.02,15.21,4.23l21.25,4.83c12.23,2.66,23.04,6.2,32.42,10.62
		c9.38,4.43,17.27,9.7,23.67,15.82c6.4,6.12,11.25,13.16,14.55,21.13c3.3,7.97,4.99,16.9,5.07,26.8
		c-0.08,15.62-4.03,29.02-11.83,40.21c-7.81,11.19-19.02,19.76-33.63,25.72s-32.22,8.93-52.82,8.93c-20.69,0-38.72-3.1-54.09-9.3
		c-15.38-6.2-27.33-15.61-35.86-28.25c-8.53-12.64-12.92-28.61-13.16-47.93h57.23c0.48,7.97,2.61,14.61,6.4,19.92
		c3.78,5.31,9,9.34,15.64,12.07c6.64,2.74,14.35,4.11,23.12,4.11c8.05,0,14.91-1.09,20.59-3.26c5.67-2.17,10.04-5.19,13.1-9.06
		c3.06-3.86,4.63-8.29,4.71-13.28c-0.08-4.67-1.53-8.67-4.35-12.01c-2.82-3.34-7.14-6.24-12.98-8.69
		c-5.84-2.45-13.26-4.73-22.28-6.82l-25.84-6.04c-21.41-4.91-38.27-12.86-50.59-23.85c-12.32-10.99-18.43-25.86-18.35-44.61
		c-0.08-15.29,4.02-28.69,12.32-40.21c8.29-11.51,19.76-20.48,34.41-26.92c14.65-6.44,31.35-9.66,50.11-9.66
		c19.16,0,35.8,3.24,49.93,9.72c14.13,6.48,25.09,15.56,32.9,27.23c7.81,11.67,11.79,25.2,11.95,40.57H2754.41z"/>
	<path d="M2849.37,351.31c-2.38,0-4.42-0.86-6.13-2.57c-1.71-1.71-2.57-3.75-2.57-6.13c0-2.42,0.85-4.47,2.57-6.16
		c1.71-1.69,3.75-2.54,6.13-2.54c2.42,0,4.47,0.85,6.16,2.54s2.54,3.74,2.54,6.16c0,1.57-0.39,3.02-1.18,4.35
		c-0.79,1.33-1.83,2.38-3.14,3.17C2852.43,350.92,2850.97,351.31,2849.37,351.31z"/>
	<path d="M2912.27,352.52c-5.59,0-10.71-1.1-15.33-3.29c-4.63-2.19-8.31-5.37-11.05-9.54c-2.74-4.17-4.11-9.23-4.11-15.18
		c0-4.59,0.87-8.45,2.6-11.59c1.73-3.14,4.19-5.71,7.37-7.73c3.18-2.01,6.94-3.6,11.29-4.77c4.35-1.17,9.14-2.07,14.37-2.72
		c5.19-0.64,9.59-1.21,13.19-1.69c3.6-0.48,6.35-1.25,8.24-2.29c1.89-1.05,2.84-2.74,2.84-5.07v-2.17c0-6.32-1.88-11.3-5.64-14.94
		c-3.76-3.64-9.17-5.46-16.21-5.46c-6.68,0-12.12,1.47-16.33,4.41c-4.21,2.94-7.15,6.4-8.84,10.38l-10.2-3.68
		c2.09-5.07,4.99-9.12,8.69-12.16c3.7-3.04,7.85-5.23,12.44-6.58c4.59-1.35,9.24-2.02,13.95-2.02c3.54,0,7.23,0.46,11.08,1.39
		c3.84,0.93,7.42,2.53,10.72,4.8c3.3,2.27,5.98,5.43,8.03,9.48c2.05,4.04,3.08,9.17,3.08,15.36v62.97h-10.75v-14.67H2941
		c-1.29,2.74-3.2,5.39-5.74,7.97c-2.54,2.58-5.71,4.69-9.54,6.34C2921.91,351.7,2917.42,352.52,2912.27,352.52z M2913.72,342.68
		c5.71,0,10.66-1.27,14.85-3.8c4.19-2.54,7.42-5.91,9.69-10.11c2.27-4.21,3.41-8.84,3.41-13.92v-13.4
		c-0.81,0.77-2.14,1.45-4.01,2.05c-1.87,0.6-4.03,1.14-6.46,1.6c-2.44,0.46-4.86,0.86-7.27,1.18s-4.59,0.6-6.52,0.84
		c-5.23,0.64-9.7,1.65-13.4,3.02c-3.7,1.37-6.54,3.25-8.51,5.64c-1.97,2.39-2.96,5.46-2.96,9.21c0,5.64,2.01,9.99,6.04,13.07
		C2902.59,341.14,2907.64,342.68,2913.72,342.68z"/>
	<path d="M2986.58,241.74c-2.21,0-4.1-0.75-5.67-2.26c-1.57-1.51-2.35-3.33-2.35-5.46c0-2.13,0.78-3.95,2.35-5.46
		c1.57-1.51,3.46-2.26,5.67-2.26c2.21,0,4.11,0.75,5.67,2.26c1.57,1.51,2.35,3.33,2.35,5.46c0,2.13-0.78,3.95-2.35,5.46
		C2990.69,240.99,2988.79,241.74,2986.58,241.74z M2981.09,350.41v-92.73h10.81v92.73H2981.09z"/>
</g>
<linearGradient id="SVGID_1_" gradientUnits="userSpaceOnUse" x1="236.5524" y1="473.1091" x2="236.5524" y2="-9.094947e-13">
	<stop  offset="0" style="stop-color:#32A1E5"/>
	<stop  offset="1" style="stop-color:#39B4FF"/>
</linearGradient>
<path class="st0" d="M469.31,195.06c-9.18-54.53-35.11-100.41-76.93-136.31C332.49,7.33,262.97-10.51,185.72,5.91
	C81.21,28.13,1.25,120.64,0.31,235.51c-0.63,77.14-0.08,154.29-0.22,231.43c-0.01,4.84,1.36,6.17,6.17,6.15
	c39.32-0.18,78.64-0.1,117.97-0.1c36.99,0,73.98,0.35,110.97-0.18c14.41-0.21,28.95-1.41,43.14-3.87
	c55.02-9.55,101.23-35.68,137.33-78.09C463.88,334.21,481.66,268.44,469.31,195.06z M321.64,367.47l-85.09-44.74l-85.08,44.74
	l16.25-94.77l-68.83-67.06l95.12-13.78l42.54-86.22l42.55,86.22l95.12,13.78l-68.83,67.06L321.64,367.47z"/>
</svg>
