<?xml version="1.0" encoding="utf-8"?>
<!-- Generator: Adobe Illustrator 26.0.2, SVG Export Plug-In . SVG Version: 6.00 Build 0)  -->
<svg version="1.1" id="Layer_1" xmlns="http://www.w3.org/2000/svg" xmlns:xlink="http://www.w3.org/1999/xlink" x="0px" y="0px"
	 viewBox="0 0 3529 2946.61" style="enable-background:new 0 0 3529 2946.61;" xml:space="preserve">
<style type="text/css">
	.st0{fill:#EDF4FF;}
	.st1{fill:#8DB9F2;}
	.st2{fill:#CFE4FF;}
	.st3{fill:#253858;}
	.st4{fill:#C1C7D0;}
	.st5{fill:#F4F5F7;}
	.st6{fill:#DFE1E5;}
	.st7{fill:#B3BAC5;}
	.st8{fill:#FFFFFF;}
	.st9{fill:#EBECF0;}
	.st10{fill:#8993A4;}
	.st11{fill:#A5E1D2;}
	.st12{fill:#FFC543;}
	.st13{clip-path:url(#SVGID_00000134971288184724930870000009667055965184756111_);}
	.st14{fill:#1B4E61;}
	.st15{fill:#37BC9B;}
	.st16{fill:url(#SVGID_00000054261739333864736630000009225826261561587132_);}
	.st17{fill:#DE4E31;}
	.st18{fill:#E87950;}
	.st19{fill:#FCC14A;}
	.st20{fill:#011E41;}
	.st21{fill:#FAF8DC;}
	.st22{fill:#FFC400;}
	.st23{clip-path:url(#SVGID_00000173869143679027219640000008660251245779031997_);}
	.st24{fill:url(#SVGID_00000161612566942615384210000015158628869047699842_);}
	.st25{fill:#F3D0DD;}
	.st26{clip-path:url(#SVGID_00000144305217438821542330000001902495633760383421_);}
	.st27{fill:url(#SVGID_00000129916638504090395310000015894190025556761770_);}
</style>
<g>
	<path class="st0" d="M3316.52,2083.55c-88.35,96.41-203.25,162.79-277.94,272.94c-45.64,67.31-63.8,178,8.77,214.69
		c16.16,8.17,34.49,10.9,51.33,17.55c78.22,30.92,98.48,143.27,53.59,214.4c-44.89,71.13-133.2,103.88-217.18,108.52
		c-1.06,0.06-2.12,0.1-3.19,0.13c-331.95,9.71-665.09,2.78-997.13,3.04c-208.88,0.17-417.76,0.26-626.64,0.3
		c-195.3,0.04-400.12,35.28-590.35-24.81c-86.42-27.3-173.24-89.32-238.29-165.2c-39.77-46.39-71.41-97.96-89.85-149.94
		c-34.93-98.45-23.76-214.02,42.06-296.73c69.69-87.56,171.19-155.41,154.38-283.67c-9.6-73.21-61.92-134.36-121.71-177.68
		c-59.79-43.32-128.26-73.08-190.52-112.76C63.77,1570.42-76.25,1289.12,44.91,1051.44c73.48-144.14,235.58-234.9,397.36-233.55
		c195.64,1.63,387.75,123.29,576.91,73.29c206.44-54.58,289.05-249.16,417.23-395.85c240.48-275.2,635.15-412.34,990.5-326.94
		c97.96,23.54,193.77,63.76,269.33,130.39c108.47,95.67,166.64,239.67,178.76,383.79s-18.21,288.92-64.08,426.09
		c-30.01,89.75-63.35,179.43-75.93,273.95c-7.47,56.12,10.07,123.75,62.85,144.23c42.04,16.32,88.54-3.45,129.65-21.99
		c96.78-43.64,198.84-82.75,305-82.69c106.16,0.06,218.02,46.73,269.76,139.43c50.29,90.1,21.85,224.86-20.71,313.78
		C3440.11,1961.9,3379.04,2015.33,3316.52,2083.55z"/>
	<g>
		<path class="st1" d="M1216.75,2708.28c-8.04-10.59-16.15-21.16-24.34-31.68l6.31-4.91c8.21,10.54,16.34,21.13,24.4,31.75
			L1216.75,2708.28z M2100,2707.35c-10.27,0-20.54-0.07-30.82-0.2l0.11-8c10.23,0.13,20.48,0.2,30.71,0.2l9.2-0.02l0.05,8
			L2100,2707.35z M2149.32,2706.77l-0.19-8c13.31-0.32,26.61-0.79,39.88-1.41l0.38,7.98
			C2176.06,2705.98,2162.7,2706.45,2149.32,2706.77z M2029.14,2706.36c-13.34-0.35-26.69-0.78-40.02-1.27l0.3-8
			c13.3,0.48,26.62,0.91,39.94,1.27L2029.14,2706.36z M1949.11,2703.46c-13.35-0.6-26.68-1.23-39.98-1.88l0.39-7.98
			c13.28,0.65,26.59,1.28,39.95,1.87L1949.11,2703.46z M2229.41,2702.93l-0.59-7.98c13.48-1,26.84-2.2,39.71-3.55l0.84,7.95
			C2256.42,2700.71,2242.97,2701.92,2229.41,2702.93z M2309.18,2694.5l-1.11-7.92c13.24-1.84,26.48-3.95,39.35-6.25l1.41,7.88
			C2335.86,2690.52,2322.52,2692.64,2309.18,2694.5z M2388.22,2680.33l-1.73-7.81c13.08-2.91,26.08-6.11,38.65-9.52l2.09,7.72
			C2414.54,2674.16,2401.41,2677.39,2388.22,2680.33z M2465.73,2659.26l-2.47-7.61c12.7-4.12,25.31-8.6,37.49-13.29l2.88,7.47
			C2491.32,2650.57,2478.57,2655.09,2465.73,2659.26z M1167.65,2645.25c-8.33-10.38-16.74-20.7-25.25-30.94l6.16-5.11
			c8.53,10.27,16.98,20.62,25.34,31.05L1167.65,2645.25z M2540.75,2630.35l-3.3-7.3c10.19-4.59,20.28-9.45,30.01-14.42l5.75-2.98
			l3.72,7.08l-5.83,3.02C2561.27,2620.79,2551.06,2625.69,2540.75,2630.35z M2611.97,2592.98l-4.14-6.84
			c11.25-6.79,22.49-14.04,33.41-21.54l4.53,6.59C2634.72,2578.79,2623.35,2586.11,2611.97,2592.98z M1116.61,2583.86
			c-8.7-10.08-17.5-20.06-26.4-29.94l5.94-5.36c8.95,9.92,17.78,19.95,26.52,30.06L1116.61,2583.86z M2678.25,2547.5l-4.89-6.33
			c10.35-8.02,20.7-16.5,30.77-25.22l5.23,6.05C2699.2,2530.81,2688.73,2539.39,2678.25,2547.5z M1063.15,2524.58
			c-9.14-9.67-18.4-19.23-27.78-28.64l5.66-5.64c9.43,9.46,18.74,19.06,27.93,28.78L1063.15,2524.58z M2739.04,2494.86l-5.55-5.77
			c9.47-9.13,18.88-18.67,27.93-28.34l5.84,5.47C2758.11,2476,2748.61,2485.63,2739.04,2494.86z M1006.83,2468.07
			c-9.75-9.26-19.63-18.34-29.34-27l5.32-5.97c9.78,8.71,19.71,17.85,29.53,27.16L1006.83,2468.07z M2794,2436.21l-6.11-5.17
			c8.49-10.01,16.91-20.43,25.02-30.97l6.34,4.88C2811.06,2415.59,2802.56,2426.11,2794,2436.21z M421.82,2417.55
			c-9.11,0-18-0.41-26.41-1.21l0.76-7.97c10.85,1.04,22.66,1.41,34.34,1.05l5.08-0.18l0.33,8l-5.18,0.18
			C427.77,2417.51,424.8,2417.55,421.82,2417.55z M947.3,2415.04c-10.34-8.61-20.79-17.01-31.06-24.96l4.9-6.33
			c10.34,8.01,20.87,16.47,31.28,25.15L947.3,2415.04z M476.14,2413.27l-1.23-7.91c12.89-2,25.9-4.76,38.69-8.19l2.07,7.73
			C502.61,2408.41,489.31,2411.22,476.14,2413.27z M355.4,2408.77c-13.76-4.11-26.34-9.73-37.4-16.7l4.27-6.77
			c10.44,6.58,22.36,11.89,35.42,15.79L355.4,2408.77z M554.09,2392.38l-2.88-7.47c12.24-4.71,24.4-10.13,36.14-16.1l3.62,7.12
			C579,2382.04,566.59,2387.57,554.09,2392.38z M2843,2372.54l-6.56-4.58c7.56-10.84,14.99-21.99,22.08-33.16l6.75,4.28
			C2858.12,2350.36,2850.63,2361.61,2843,2372.54z M884.29,2366.28c-7.23-5.17-14.55-10.26-21.93-15.26
			c-3.62-2.45-7.26-4.86-10.92-7.27l4.39-6.69c3.69,2.42,7.36,4.86,11,7.33c7.45,5.03,14.81,10.16,22.11,15.38L884.29,2366.28z
			 M287.52,2364.33c-8.39-11.18-14.7-23.98-18.25-37.02l7.72-2.09c3.29,12.07,9.14,23.94,16.93,34.3L287.52,2364.33z
			 M625.99,2355.77l-4.34-6.72c11.04-7.14,21.83-14.94,32.07-23.17l5.02,6.23C648.28,2340.52,637.26,2348.48,625.99,2355.77z
			 M817.66,2322.69c-11.41-6.77-23.08-13.34-34.7-19.53l3.77-7.06c11.72,6.26,23.5,12.89,35.01,19.72L817.66,2322.69z
			 M688.83,2305.16l-5.65-5.67c9.36-9.33,18.27-19.22,26.46-29.38l6.23,5.02C707.5,2285.52,698.4,2295.62,688.83,2305.16z
			 M2886.03,2304.71l-6.94-3.98c6.58-11.45,13.01-23.2,19.12-34.95l7.09,3.69C2899.15,2281.31,2892.66,2293.17,2886.03,2304.71z
			 M275.42,2287.49l-7.83-1.64c1.45-6.92,3.83-13.55,7.08-19.7c3.25-6.17,7.36-11.96,12.21-17.2l5.87,5.44
			c-4.37,4.73-8.08,9.94-11.01,15.49C278.85,2275.37,276.72,2281.29,275.42,2287.49z M747.41,2285.25
			c-11.97-5.69-24.2-11.13-36.36-16.2l3.08-7.39c12.28,5.12,24.63,10.62,36.71,16.35L747.41,2285.25z M673.93,2254.68
			c-12.59-4.51-25.31-8.69-37.8-12.41l2.29-7.67c12.62,3.77,25.48,8,38.2,12.55L673.93,2254.68z M739.45,2242.28l-6.75-4.3
			c6.95-10.94,13.51-22.52,19.48-34.45l7.16,3.58C753.23,2219.28,746.54,2231.11,739.45,2242.28z M2923.07,2233.44l-7.25-3.39
			c5.55-11.84,10.98-24.09,16.15-36.42l7.38,3.09C2934.14,2209.16,2928.66,2221.51,2923.07,2233.44z M324.08,2232.64l-3.3-7.28
			c11.24-5.11,24.35-9.21,38.96-12.19l1.59,7.84C347.32,2223.86,334.78,2227.78,324.08,2232.64z M597.72,2231.9
			c-12.96-3.11-26.05-5.86-38.92-8.16l1.41-7.88c13.02,2.33,26.27,5.1,39.38,8.25L597.72,2231.9z M519.48,2217.92
			c-13.29-1.55-26.61-2.68-39.59-3.34l0.41-7.98c13.15,0.67,26.65,1.8,40.11,3.38L519.48,2217.92z M400.51,2215.76l-0.67-7.97
			c13.27-1.12,26.8-1.78,40.22-1.98l0.12,8C426.94,2214.01,413.59,2214.67,400.51,2215.76z M775.67,2170.22l-7.45-2.91
			c4.69-12.02,9.01-24.64,12.84-37.52l7.66,2.28C784.83,2145.17,780.44,2158,775.67,2170.22z M2954.11,2159.36l-7.5-2.78
			c4.62-12.45,9.07-25.09,13.21-37.59l7.59,2.52C2963.25,2134.1,2958.77,2146.84,2954.11,2159.36z M798.81,2093.09l-7.81-1.73
			c2.79-12.59,5.26-25.73,7.34-39.05l7.91,1.23C804.14,2067.03,801.63,2080.33,798.81,2093.09z M2979.35,2083.18l-7.67-2.25
			c3.68-12.6,7.23-25.54,10.54-38.44l7.75,1.98C2986.63,2057.47,2983.06,2070.49,2979.35,2083.18z M811.38,2013.66l-7.96-0.81
			c1.32-12.84,2.36-26.2,3.11-39.7l7.98,0.44C813.77,1987.21,812.71,2000.7,811.38,2013.66z M2999.29,2005.46l-7.81-1.73
			c2.84-12.8,5.55-25.94,8.05-39.05l7.86,1.5C3004.88,1979.36,3002.15,1992.58,2999.29,2005.46z M815.99,1933.46l-8-0.14
			c0.13-6.94,0.19-13.87,0.19-20.79c0-6.36-0.05-12.73-0.15-19.08l8-0.12c0.1,6.4,0.15,12.8,0.15,19.2
			C816.18,1919.5,816.12,1926.48,815.99,1933.46z M3014.32,1926.65l-7.91-1.27c2.09-13.05,4.04-26.33,5.77-39.47l7.94,1.05
			C3018.38,1900.18,3016.43,1913.54,3014.32,1926.65z M806.75,1853.61c-0.61-12.99-1.44-26.38-2.46-39.8l7.98-0.61
			c1.02,13.49,1.86,26.96,2.47,40.03L806.75,1853.61z M3024.87,1847.14l-7.95-0.84c1.41-13.22,2.65-26.47,3.74-39.73l7.97,0.66
			C3027.54,1820.54,3026.29,1833.86,3024.87,1847.14z M800.77,1774.06c-1.34-13.23-2.83-26.44-4.46-39.65l7.94-0.98
			c1.64,13.27,3.14,26.55,4.48,39.84L800.77,1774.06z M3031.44,1767.22l-7.98-0.47c0.79-13.28,1.43-26.57,1.93-39.88l8,0.3
			C3032.88,1740.54,3032.23,1753.89,3031.44,1767.22z M791.03,1694.86c-1.88-13.16-3.87-26.32-5.96-39.48l7.9-1.25
			c2.1,13.19,4.1,26.39,5.98,39.6L791.03,1694.86z M3034.5,1687.12l-8-0.14c0.23-12.87,0.34-25.73,0.34-38.59l-0.01-1.34h8
			l0.01,1.27C3034.84,1661.29,3034.73,1674.21,3034.5,1687.12z M778.54,1615.98c-2.26-13.12-4.59-26.23-6.98-39.34l7.87-1.44
			c2.4,13.14,4.73,26.28,6.99,39.42L778.54,1615.98z M3026.47,1607.13c-0.16-8.55-0.35-17.09-0.59-25.62
			c-0.12-4.78-0.27-9.55-0.44-14.3l8-0.28c0.16,4.79,0.31,9.57,0.44,14.37c0.24,8.55,0.44,17.12,0.59,25.7L3026.47,1607.13z
			 M764.26,1537.34c-2.48-13.09-4.99-26.18-7.51-39.27l7.86-1.52c2.53,13.11,5.04,26.2,7.52,39.3L764.26,1537.34z M3023.8,1527.3
			c-0.66-13.3-1.41-26.59-2.26-39.88l7.98-0.51c0.85,13.32,1.6,26.66,2.26,40L3023.8,1527.3z M749.15,1458.8
			c-2.54-13.09-5.07-26.19-7.58-39.29l7.86-1.51c2.51,13.1,5.04,26.19,7.57,39.27L749.15,1458.8z M3018.68,1447.58
			c-1.05-13.27-2.21-26.54-3.47-39.79l7.97-0.76c1.26,13.3,2.41,26.6,3.47,39.91L3018.68,1447.58z M734.14,1380.18
			c-2.44-13.12-4.84-26.25-7.18-39.39l7.88-1.4c2.33,13.11,4.73,26.22,7.17,39.33L734.14,1380.18z M3011.15,1368.07
			c-1.46-13.23-3.02-26.46-4.67-39.67l7.94-0.99c1.66,13.25,3.23,26.51,4.69,39.79L3011.15,1368.07z M720.16,1301.32
			c-2.2-13.18-4.3-26.36-6.31-39.56l7.91-1.2c2,13.16,4.11,26.31,6.29,39.45L720.16,1301.32z M3001.21,1288.81
			c-1.86-13.19-3.81-26.36-5.88-39.51l7.91-1.23c2.06,13.19,4.03,26.4,5.89,39.62L3001.21,1288.81z M708.16,1222.08
			c-1.78-13.25-3.44-26.5-4.95-39.77l7.95-0.91c1.51,13.21,3.16,26.42,4.93,39.62L708.16,1222.08z M2988.87,1209.89
			c-2.25-13.12-4.61-26.23-7.05-39.31l7.86-1.47c2.46,13.12,4.82,26.27,7.09,39.43L2988.87,1209.89z M699.13,1142.42
			c-1.21-13.31-2.24-26.64-3.1-39.97l7.98-0.52c0.85,13.27,1.89,26.53,3.09,39.77L699.13,1142.42z M2974.15,1131.39
			c-2.65-13.05-5.4-26.08-8.24-39.08l7.81-1.71c2.86,13.04,5.61,26.11,8.27,39.2L2974.15,1131.39z M694.05,1062.38
			c-0.41-11.92-0.61-23.79-0.61-35.28l0.01-4.87l8,0.04l-0.01,4.83c0,11.4,0.2,23.18,0.6,35L694.05,1062.38z M2957.07,1053.36
			c-3.05-12.96-6.19-25.9-9.43-38.81l7.77-1.95c3.24,12.95,6.4,25.93,9.45,38.93L2957.07,1053.36z M702.51,982.46l-7.99-0.39
			c0.66-13.56,1.66-27.05,2.95-40.09l7.96,0.79C704.15,955.67,703.17,969.03,702.51,982.46z M2937.64,975.89
			c-3.44-12.86-6.97-25.7-10.61-38.51l7.7-2.19c3.64,12.85,7.19,25.72,10.64,38.62L2937.64,975.89z M710.48,903.31l-7.91-1.24
			c2.13-13.5,4.66-26.8,7.52-39.55l7.8,1.75C715.07,876.85,712.57,889.98,710.48,903.31z M2915.85,899.04
			c-2.47-8.2-4.96-16.38-7.5-24.54l-4.27-13.63l7.62-2.41l4.29,13.67c2.54,8.19,5.05,16.39,7.52,24.61L2915.85,899.04z
			 M727.99,825.86l-7.66-2.32c3.96-13.06,8.43-25.87,13.28-38.07l7.44,2.95C736.28,800.42,731.89,813.02,727.99,825.86z
			 M2891.77,822.87c-4.19-12.64-8.45-25.27-12.76-37.87l7.56-2.59c4.33,12.63,8.6,25.28,12.79,37.95L2891.77,822.87z M757.32,752.3
			l-7.13-3.62c6.16-12.1,12.91-23.89,20.08-35.03l6.73,4.33C769.97,728.89,763.35,740.44,757.32,752.3z M2283.1,749.89
			c-12.73,0-25.47-0.18-38.2-0.51l0.22-8c12.79,0.34,25.85,0.69,38.38,0.51h1.51v8h-1.51
			C2283.36,749.89,2283.23,749.89,2283.1,749.89z M2325.11,749.28l-0.23-8c12.16-0.36,24.31-0.89,36.48-1.58l3.36-0.2l0.47,7.98
			l-3.38,0.2C2349.57,748.39,2337.34,748.91,2325.11,749.28z M2204.83,747.77c-13.35-0.71-26.69-1.6-40.02-2.65l0.62-7.98
			c13.27,1.04,26.54,1.93,39.81,2.63L2204.83,747.77z M2865.9,747.24c-4.42-12.57-8.88-25.13-13.36-37.68l7.53-2.69
			c4.48,12.56,8.95,25.13,13.38,37.71L2865.9,747.24z M2405.2,744.43l-0.73-7.97c13.31-1.24,26.64-2.71,39.62-4.38l1.02,7.94
			C2432.04,741.7,2418.61,743.18,2405.2,744.43z M2124.87,741.48c-13.28-1.38-26.56-2.91-39.82-4.59l1-7.94
			c13.21,1.68,26.43,3.2,39.65,4.57L2124.87,741.48z M2484.81,734.15l-1.31-7.89c13.17-2.2,26.35-4.68,39.16-7.36l1.64,7.83
			C2511.38,729.44,2498.1,731.93,2484.81,734.15z M2045.34,731.4c-13.21-1.97-26.41-4.09-39.58-6.34l1.34-7.88
			c13.12,2.24,26.26,4.35,39.42,6.31L2045.34,731.4z M1966.32,717.91c-13.12-2.51-26.22-5.15-39.29-7.91l1.66-7.83
			c13.02,2.75,26.06,5.38,39.13,7.88L1966.32,717.91z M2563.43,717.67l-1.97-7.75c12.98-3.31,25.88-6.91,38.34-10.71l2.33,7.65
			C2589.55,710.7,2576.54,714.33,2563.43,717.67z M1887.91,701.39c-13.02-2.99-26.01-6.09-38.98-9.29l1.92-7.77
			c12.93,3.2,25.87,6.28,38.86,9.26L1887.91,701.39z M2640.27,694.2l-2.7-7.52c12.58-4.53,25.05-9.39,37.05-14.46l3.11,7.38
			C2665.59,684.7,2652.99,689.62,2640.27,694.2z M800.15,685.93l-6.22-5.03c8.41-10.39,17.54-20.48,27.14-29.97l5.62,5.69
			C817.3,665.9,808.37,675.76,800.15,685.93z M1810.11,682.18c-12.91-3.4-25.8-6.91-38.66-10.5l2.16-7.7
			c12.82,3.58,25.67,7.08,38.54,10.47L1810.11,682.18z M2839,671.93l-13.58-37.62l7.53-2.71l13.58,37.62L2839,671.93z
			 M2714.36,662.95l-3.52-7.19c11.96-5.85,23.8-12.08,35.16-18.52l3.94,6.96C2738.43,650.71,2726.47,657.02,2714.36,662.95z
			 M1732.95,660.62c-12.82-3.77-25.6-7.62-38.35-11.55l2.36-7.65c12.71,3.92,25.46,7.77,38.25,11.53L1732.95,660.62z M1656.4,637.08
			c-12.7-4.05-25.4-8.14-38.1-12.25l2.46-7.61c12.69,4.1,25.38,8.2,38.07,12.24L1656.4,637.08z M856.27,630.36l-4.98-6.26
			c10.38-8.27,21.41-16.18,32.81-23.52l4.33,6.73C877.25,614.51,866.43,622.26,856.27,630.36z M2784.34,623.32l-4.38-6.7
			c10.62-6.91,21.11-14.27,31.23-21.88c-4.28-11.92-8.52-23.85-12.74-35.78l7.55-2.66c4.43,12.56,8.91,25.12,13.41,37.66l-5.37,1.93
			l3.24,4.28C2806.64,608.23,2795.55,616.02,2784.34,623.32z M1580.24,612.51c-12.68-4.09-25.37-8.16-38.07-12.18l2.41-7.62
			c12.72,4.02,25.43,8.1,38.11,12.2L1580.24,612.51z M1504.01,588.46c-12.74-3.88-25.5-7.68-38.29-11.35l2.21-7.69
			c12.82,3.68,25.62,7.49,38.4,11.38L1504.01,588.46z M922.69,587.48l-3.68-7.1c11.73-6.08,24.03-11.79,36.57-16.98l3.05,7.39
			C946.31,575.89,934.22,581.5,922.69,587.48z M2848.55,574.79l-5.25-6.03c9.98-8.69,19.73-17.82,29-27.12l5.67,5.65
			C2868.57,556.72,2858.67,565.98,2848.55,574.79z M1427.26,566.47c-12.86-3.41-25.76-6.66-38.68-9.72l1.84-7.78
			c13,3.08,25.95,6.35,38.89,9.77L1427.26,566.47z M995.86,557.13l-2.46-7.61c12.54-4.05,25.58-7.73,38.76-10.94l1.89,7.77
			C1021.07,549.52,1008.22,553.14,995.86,557.13z M1349.65,548.16c-13.24-2.7-26.42-5.14-39.18-7.25l1.3-7.89
			c12.86,2.13,26.13,4.59,39.47,7.31L1349.65,548.16z M1072.95,538.32l-1.35-7.88c13.06-2.24,26.48-4.09,39.88-5.51l0.84,7.95
			C1099.09,534.28,1085.84,536.11,1072.95,538.32z M1271.04,535.2c-13.33-1.64-26.66-2.96-39.61-3.94l0.6-7.98
			c13.07,0.98,26.53,2.32,39.98,3.98L1271.04,535.2z M1151.96,529.95l-0.34-7.99c13.38-0.58,26.88-0.75,40.24-0.53l-0.13,8
			C1178.52,529.19,1165.17,529.37,1151.96,529.95z M2785.24,521.18c-4.35-12.62-8.65-25.25-12.88-37.91l7.59-2.54
			c4.22,12.63,8.52,25.24,12.85,37.84L2785.24,521.18z M2905.38,517.75l-6.06-5.23c8.69-10.08,17.03-20.51,24.8-31l6.44,4.76
			C2922.67,496.93,2914.2,507.52,2905.38,517.75z M2953.27,452.98l-6.78-4.25c7.09-11.3,13.7-22.89,19.68-34.44l7.11,3.68
			C2967.2,429.71,2960.47,441.49,2953.27,452.98z M2759.9,445.2c-4.07-12.71-8.06-25.46-11.95-38.23l7.66-2.33
			c3.87,12.73,7.84,25.44,11.91,38.12L2759.9,445.2z M2990.31,381.41l-7.39-3.06c5.08-12.26,9.62-24.79,13.5-37.25l7.64,2.38
			C3000.11,356.17,2995.48,368.93,2990.31,381.41z M2736.64,368.54c-3.66-12.85-7.2-25.73-10.61-38.65l7.73-2.04
			c3.39,12.87,6.91,25.7,10.56,38.49L2736.64,368.54z M3014.25,304.46l-7.83-1.66c2.51-11.88,4.5-23.98,5.92-35.97l0.35-3.12
			l7.95,0.89l-0.37,3.17C3018.85,280,3016.82,292.34,3014.25,304.46z M2716.24,291.01c-1.18-4.95-2.35-9.91-3.49-14.88
			c-1.84-7.97-3.55-16.12-5.09-24.39l7.86-1.47c1.52,8.16,3.22,16.2,5.02,24.07c1.14,4.95,2.3,9.88,3.48,14.81L2716.24,291.01z
			 M3014.79,224.25c-0.06-13.38-0.94-26.64-2.6-39.4l7.94-1.03c1.7,13.09,2.6,26.68,2.66,40.39L3014.79,224.25z M2701.8,211.85
			c-1.45-13.88-2.19-27.37-2.19-40.09l7.02-0.22l0.97,0.01c0.01,12.65,0.73,25.86,2.15,39.47L2701.8,211.85z M3004.36,146.24
			c-3.62-12.9-8.21-25.29-13.66-36.82l7.23-3.42c5.64,11.94,10.4,24.75,14.13,38.09L3004.36,146.24z M2710.31,132.21l-7.92-1.14
			c2.05-14.16,5.28-27.48,9.62-39.58l7.53,2.7C2715.38,105.78,2712.28,118.57,2710.31,132.21z M2970.68,75.77
			c-3.54-4.8-7.32-9.45-11.25-13.82c-4.65-5.18-9.77-10.14-15.23-14.77l5.17-6.11c5.74,4.86,11.13,10.08,16.02,15.53
			c4.1,4.57,8.05,9.41,11.73,14.42L2970.68,75.77z M2737.23,59.66l-6.53-4.61c7.96-11.29,17.56-21.21,28.53-29.52l4.83,6.38
			C2753.75,39.72,2744.72,49.05,2737.23,59.66z M2911.65,25.75c-11.71-5.89-24.03-10.4-36.62-13.41l1.86-7.78
			c13.19,3.16,26.09,7.89,38.35,14.05L2911.65,25.75z M2798.19,14.19l-2.45-7.61c12.75-4.12,26.38-6.34,40.5-6.58l0.14,8
			C2823.04,8.23,2810.19,10.31,2798.19,14.19z"/>
	</g>
	<path class="st2" d="M2991.84,2888.14c-87.43-8.56-175.04-7.2-262.65-7.6c-87.61-0.48-175.15-0.56-262.7-0.88
		c-203.41-0.62-406.76-1.46-610.16-1.88c-2.64-0.04-5.28-0.03-7.92-0.02c-2.64-0.01-5.28-0.02-7.92-0.02
		c-203.4,0.46-406.76,1.3-610.16,1.92c-87.55,0.32-175.1,0.4-262.7,0.88c-87.61,0.4-175.22-0.96-262.65,7.6
		c-22.55,2.24-22.61,45.6,0,47.84c77.98,7.6,155.84,6.96,233.99,7.44c78.04,0.56,156.02,0.64,234.05,0.88
		c156.01,0.48,312.03,0.96,468.04,1.6c66.47,0.3,132.95,0.51,199.43,0.66c2.64,0.05,5.28,0.04,7.92,0.03
		c2.64,0.01,5.28,0.02,7.92,0.03c66.48-0.21,132.95-0.42,199.43-0.72c156.02-0.64,312.03-1.12,468.04-1.6
		c78.04-0.24,156.02-0.32,234.05-0.88c78.15-0.48,156.01,0.16,233.99-7.44C3014.45,2933.74,3014.39,2890.38,2991.84,2888.14z"/>
	<g>
		<g>
			<path class="st3" d="M1144.12,2731.08V438.16c0-98.52,79.86-178.38,178.38-178.38h1051.82c98.52,0,178.38,79.86,178.38,178.38
				v2292.93c0,98.52-79.86,178.38-178.38,178.38H1322.5C1223.99,2909.46,1144.12,2829.6,1144.12,2731.08z"/>
			<path class="st4" d="M1322.5,2847.57c-64.23,0-116.48-52.26-116.48-116.49V438.16c0-64.23,52.26-116.49,116.48-116.49h1051.82
				c64.23,0,116.49,52.25,116.49,116.49v2292.93c0,64.23-52.26,116.49-116.49,116.49H1322.5z"/>
			<path class="st5" d="M2466.62,438.11v2292.96c0,5.36-0.48,10.56-1.36,15.6c-1.68,10.16-5.12,19.84-9.92,28.56
				c-9.84,18-25.6,32.48-44.56,40.72c-2.8,1.2-5.68,2.32-8.64,3.28c-8.8,2.8-18.16,4.32-27.84,4.32H1322.46
				c-2.48,0-4.96-0.08-7.36-0.32c-5.28-0.4-10.4-1.28-15.36-2.56c-2.48-0.64-4.96-1.36-7.44-2.24
				c-34.88-11.92-60.32-44.08-62.24-82.48c-0.16-1.6-0.24-3.2-0.24-4.88V438.11c0-50.96,41.52-92.48,92.48-92.48h1051.84
				C2425.1,345.63,2466.62,387.15,2466.62,438.11z"/>
		</g>
		<g>
			
				<rect x="1603.57" y="217.73" transform="matrix(2.153056e-03 -1 1 2.153056e-03 1105.7131 2176.741)" class="st4" width="80" height="633.19"/>
		</g>
		<g>
			
				<rect x="1545.96" y="420.38" transform="matrix(2.852128e-03 -1 1 2.852128e-03 902.1346 2223.426)" class="st4" width="40" height="477.96"/>
		</g>
		<g>
			<circle class="st6" cx="1744.24" cy="2723.94" r="22.47"/>
			<circle class="st7" cx="1848.41" cy="2723.94" r="22.47"/>
			<circle class="st6" cx="1952.58" cy="2723.94" r="22.47"/>
		</g>
		<g>
			<path class="st8" d="M2339.8,1260.11h-982.78c-16.49,0-29.86-13.37-29.86-29.86V824.96c0-16.49,13.37-29.86,29.86-29.86h982.78
				c16.49,0,29.86,13.37,29.86,29.86v405.29C2369.66,1246.74,2356.29,1260.11,2339.8,1260.11z"/>
			<g>
				
					<rect x="1816.41" y="463.83" transform="matrix(1.562513e-03 -1 1 1.562513e-03 945.4398 2747.0862)" class="st9" width="64" height="872.5"/>
			</g>
			<g>
				
					<rect x="1816.41" y="582.31" transform="matrix(1.562513e-03 -1 1 1.562513e-03 826.9672 2865.3735)" class="st9" width="64" height="872.5"/>
			</g>
			<g>
				<polygon class="st9" points="1895.12,1169.71 1412.07,1168.35 1412.25,1104.35 1895.31,1105.71 				"/>
			</g>
			<polygon class="st10" points="1324.68,813.12 1333.94,783.71 1294,813.12 1294,879.44 1360.33,879.44 1360.33,813.12 			"/>
		</g>
		<g>
			<path class="st8" d="M2339.8,1880.64h-982.78c-16.49,0-29.86-13.37-29.86-29.86v-405.29c0-16.49,13.37-29.86,29.86-29.86h982.78
				c16.49,0,29.86,13.37,29.86,29.86v405.29C2369.66,1867.27,2356.29,1880.64,2339.8,1880.64z"/>
			<g>
				
					<rect x="1816.41" y="1084.36" transform="matrix(1.557928e-03 -1 1 1.557928e-03 324.9255 3366.647)" class="st9" width="64" height="872.5"/>
			</g>
			<g>
				
					<rect x="1816.41" y="1202.83" transform="matrix(1.558043e-03 -1 1 1.558043e-03 206.4509 3484.9368)" class="st9" width="64" height="872.5"/>
			</g>
			<g>
				<polygon class="st9" points="1895.12,1790.24 1412.07,1788.87 1412.25,1724.87 1895.31,1726.24 				"/>
			</g>
			<polygon class="st10" points="1324.68,1433.64 1333.94,1404.23 1294,1433.64 1294,1499.97 1360.33,1499.97 1360.33,1433.64 			
				"/>
		</g>
		<g>
			<path class="st8" d="M2339.8,2501.16h-982.78c-16.49,0-29.86-13.37-29.86-29.86v-405.29c0-16.49,13.37-29.86,29.86-29.86h982.78
				c16.49,0,29.86,13.37,29.86,29.86v405.29C2369.66,2487.79,2356.29,2501.16,2339.8,2501.16z"/>
			<g>
				
					<rect x="1816.41" y="1704.89" transform="matrix(1.558043e-03 -1 1 1.558043e-03 -295.6032 3986.2092)" class="st9" width="64" height="872.5"/>
			</g>
			<g>
				
					<rect x="1816.41" y="1823.35" transform="matrix(1.557928e-03 -1 1 1.557928e-03 -414.0716 4104.4937)" class="st9" width="64" height="872.5"/>
			</g>
			<g>
				<polygon class="st9" points="1895.12,2410.76 1412.07,2409.4 1412.25,2345.4 1895.31,2346.76 				"/>
			</g>
			<polygon class="st10" points="1324.68,2054.17 1333.94,2024.76 1294,2054.17 1294,2120.49 1360.33,2120.49 1360.33,2054.17 			
				"/>
		</g>
	</g>
	<g>
		<path class="st11" d="M3198.23,952.05H1960.01c-55.92,0-101.25-45.33-101.25-101.25V512.02c0-55.92,45.33-101.25,101.25-101.25
			h1238.23c55.92,0,101.25,45.33,101.25,101.25V850.8C3299.48,906.72,3254.15,952.05,3198.23,952.05z"/>
		<polygon class="st11" points="2122.43,941.84 2056.5,1092.99 2268.71,941.84 		"/>
		<g>
			<polygon class="st12" points="2478.36,608.67 2494.55,641.48 2530.76,646.74 2504.56,672.27 2510.74,708.33 2478.36,691.31 
				2445.98,708.33 2452.17,672.27 2425.97,646.74 2462.17,641.48 			"/>
			<polygon class="st12" points="2607.38,608.67 2623.57,641.48 2659.77,646.74 2633.58,672.27 2639.76,708.33 2607.38,691.31 
				2575,708.33 2581.18,672.27 2554.98,646.74 2591.19,641.48 			"/>
			<polygon class="st12" points="2736.4,608.67 2752.59,641.48 2788.79,646.74 2762.59,672.27 2768.78,708.33 2736.4,691.31 
				2704.01,708.33 2710.2,672.27 2684,646.74 2720.2,641.48 			"/>
			<polygon class="st12" points="2865.41,608.67 2881.6,641.48 2917.81,646.74 2891.61,672.27 2897.79,708.33 2865.41,691.31 
				2833.03,708.33 2839.21,672.27 2813.02,646.74 2849.22,641.48 			"/>
			<polygon class="st12" points="2994.43,608.67 3010.62,641.48 3046.82,646.74 3020.62,672.27 3026.81,708.33 2994.43,691.31 
				2962.05,708.33 2968.23,672.27 2942.03,646.74 2978.24,641.48 			"/>
		</g>
		<g>
			<g>
				<rect x="2440.2" y="535.49" class="st8" width="295.59" height="24"/>
			</g>
		</g>
		<g>
			<g>
				<rect x="2440.2" y="760.81" class="st8" width="718.09" height="24"/>
			</g>
		</g>
		<g>
			<g>
				<rect x="2440.2" y="816.65" class="st8" width="436.3" height="24"/>
			</g>
		</g>
		<path class="st8" d="M2338.59,672.54c0,43.39-14.87,83.27-39.79,115.01c-1.33,1.8-2.66,3.51-4.27,5.21
			c-1.14,1.51-2.27,2.84-3.51,4.26c-3.22,3.6-6.54,7.01-10.04,10.33c-10.8,10.42-22.83,19.42-35.91,26.9
			c-13.35,7.77-27.66,13.83-42.91,18.1c-12.22,3.41-24.91,5.59-38.08,6.35c-3.98,0.38-8.05,0.47-12.12,0.47
			c-4.36,0-8.72-0.19-12.98-0.57c-14.4-0.85-28.32-3.51-41.68-7.58c-0.57-0.19-1.23-0.38-1.8-0.47
			c-15.16-4.83-29.56-11.56-42.73-19.9c-16.86-10.61-32.02-23.87-44.62-39.22c-1.33-1.61-2.65-3.22-3.89-4.93
			c-24.44-31.55-38.94-71.05-38.94-113.97c0-103.08,83.56-186.63,186.63-186.63C2255.04,485.91,2338.59,569.47,2338.59,672.54z"/>
		<g>
			<defs>
				<path id="SVGID_1_" d="M2338.59,672.54c0,43.39-14.87,83.27-39.79,115.01c-1.33,1.8-2.66,3.51-4.27,5.21
					c-1.14,1.51-2.27,2.84-3.51,4.26c-3.22,3.6-6.54,7.01-10.04,10.33c-10.8,10.42-22.83,19.42-35.91,26.9
					c-13.35,7.77-27.66,13.83-42.91,18.1c-12.22,3.41-24.91,5.59-38.08,6.35c-3.98,0.38-8.05,0.47-12.12,0.47
					c-4.36,0-8.72-0.19-12.98-0.57c-14.4-0.85-28.32-3.51-41.68-7.58c-0.57-0.19-1.23-0.38-1.8-0.47
					c-15.16-4.83-29.56-11.56-42.73-19.9c-16.86-10.61-32.02-23.87-44.62-39.22c-1.33-1.61-2.65-3.22-3.89-4.93
					c-24.44-31.55-38.94-71.05-38.94-113.97c0-103.08,83.56-186.63,186.63-186.63C2255.04,485.91,2338.59,569.47,2338.59,672.54z"/>
			</defs>
			<clipPath id="SVGID_00000113347375434788205980000008570730380555956659_">
				<use xlink:href="#SVGID_1_"  style="overflow:visible;"/>
			</clipPath>
			<g style="clip-path:url(#SVGID_00000113347375434788205980000008570730380555956659_);">
				<path class="st14" d="M2108.87,716.47c-29.37,18.05-87.55,45.12-103.67,84.86s-12.67,79.48-12.67,79.48h302.95
					c0,0-0.03-61.82-18.43-92.15c-21.31-35.13-88.31-68.35-88.31-68.35L2108.87,716.47z"/>
				<path class="st15" d="M2221.18,815.15c-1.26-37.9-10.84-70.87-15.9-85.86c-9.84-5.66-16.55-8.98-16.55-8.98l-79.87-3.84
					c-7.08,4.35-15.82,9.22-25.25,14.66c-1.96,19.17-9.15,92.06-8.15,121.45c0.42,12.39,0.76,21.57,1.03,28.22h143.66
					C2221.17,868.43,2222.23,846.54,2221.18,815.15z"/>
				
					<linearGradient id="SVGID_00000121261762257186951950000007681115710225722787_" gradientUnits="userSpaceOnUse" x1="2149.947" y1="676.4329" x2="2146.8752" y2="714.062">
					<stop  offset="0" style="stop-color:#E0653D"/>
					<stop  offset="1" style="stop-color:#E87950"/>
				</linearGradient>
				<path style="fill:url(#SVGID_00000121261762257186951950000007681115710225722787_);" d="M2109.26,655.8l-0.38,60.67
					c0,0,18.81,21.12,44.92,18.05c26.11-3.07,34.94-14.21,34.94-14.21l1.92-64.51H2109.26z"/>
				<g>
					<g>
						<path class="st17" d="M2198.62,617.87c0,0,12.68-3.22,13.35,13.58c0.67,16.8-14.75,14.57-14.75,14.57L2198.62,617.87z"/>
					</g>
				</g>
				<g>
					<g>
						<path class="st17" d="M2105.64,617.87c0,0-12.68-3.22-13.35,13.58c-0.67,16.8,14.75,14.57,14.75,14.57L2105.64,617.87z"/>
					</g>
				</g>
				<g>
					<g>
						<path class="st18" d="M2198.73,637.02c0,34.91-23.23,62.27-45.55,61.64c-22.32-0.63-47.38-28.62-47.38-63.53
							c0-34.91,2.24-63.81,47.38-62.9C2206.21,573.3,2198.73,602.11,2198.73,637.02z"/>
					</g>
				</g>
				<path class="st19" d="M2106.06,629.05c0,0-11.78-8.7-11.52-22.53c0.26-13.82,3.33-19.71,3.33-19.71s-1.02-7.94,0.51-11.52
					s4.1-6.66,4.1-6.66s4.35-14.33,17.66-22.27c13.31-7.94,36.09-9.98,45.82-8.45c9.73,1.54,22.78,4.86,22.78,4.86
					s31.23-4.1,32.51-1.02c1.28,3.07-8.19,23.55-8.19,23.55s2.05-2.82,3.07-1.02s-3.33,17.15-7.94,25.6c0,0,1.28,3.84,0.26,11.26
					c-1.02,7.42-9.73,22.27-9.73,22.27s-1.67-9.38-3.33-17.15c-2.56-12.03-10.5-20.99-10.75-25.6c0,0-13.82,4.1-29.69,4.1
					s-30.72-4.1-30.72-4.1s-8.7,14.08-11.78,23.29C2109.39,613.18,2106.06,629.05,2106.06,629.05z"/>
				<g>
					<g>
						<path class="st17" d="M2152.71,628.29l-10.62,24.96l7.93,2.32c1.67,0.49,3.45,0.46,5.1-0.08l8.08-2.63L2152.71,628.29z"/>
					</g>
				</g>
				<g>
					<g>
						<circle class="st20" cx="2126.79" cy="630.59" r="2.69"/>
					</g>
				</g>
				<g>
					<g>
						<path class="st20" d="M2180.68,630.59c0,1.48-1.2,2.69-2.69,2.69s-2.69-1.2-2.69-2.69c0-1.48,1.2-2.69,2.69-2.69
							S2180.68,629.1,2180.68,630.59z"/>
					</g>
				</g>
				<g>
					<g>
						
							<ellipse transform="matrix(0.9239 -0.3827 0.3827 0.9239 -87.4942 862.779)" class="st17" cx="2125" cy="651.32" rx="8.83" ry="8.83"/>
					</g>
				</g>
				<g>
					<g>
						
							<ellipse transform="matrix(0.7071 -0.7071 0.7071 0.7071 178.1138 1732.6478)" class="st17" cx="2180.55" cy="651.32" rx="8.83" ry="8.83"/>
					</g>
				</g>
				<g>
					<g>
						<g>
							<path class="st8" d="M2138.31,664.7c-0.03,5.09,6.14,9.25,13.77,9.29c7.63,0.04,13.84-4.05,13.87-9.14
								c0.03-5.09-5.73-0.03-13.36-0.07S2138.34,659.61,2138.31,664.7z"/>
						</g>
					</g>
				</g>
			</g>
		</g>
	</g>
	<g>
		<path class="st21" d="M3277.47,2303.9H2039.25c-55.92,0-101.25-45.33-101.25-101.25v-338.78c0-55.92,45.33-101.25,101.25-101.25
			h1238.23c55.92,0,101.25,45.33,101.25,101.25v338.78C3378.72,2258.56,3333.39,2303.9,3277.47,2303.9z"/>
		<polygon class="st21" points="2201.67,2293.68 2135.74,2444.83 2347.94,2293.68 		"/>
		<path class="st8" d="M2417.85,2024.36c0,43.44-14.88,83.28-39.84,115.04c-0.4,0.56-0.8,1.12-1.28,1.68
			c-0.88,1.2-1.84,2.4-2.96,3.52c-0.88,1.28-1.84,2.32-2.8,3.44c-0.24,0.24-0.48,0.56-0.72,0.8c-0.32,0.4-0.64,0.8-1.04,1.12
			c-2.88,3.2-5.84,6.24-8.96,9.2c-10.8,10.48-22.88,19.44-35.92,26.96c-5.28,3.12-10.8,5.92-16.4,8.4
			c-8.48,3.92-17.36,7.12-26.48,9.68c-3.52,0.96-7.12,1.84-10.72,2.56c-3.6,0.88-7.28,1.52-10.96,2
			c-5.44,0.88-10.88,1.44-16.48,1.76c-3.92,0.4-8,0.48-12.08,0.48c-4.4,0-8.72-0.16-12.96-0.56c-7.2-0.48-14.32-1.36-21.28-2.56
			c-5.68-1.12-11.28-2.4-16.72-4c-1.2-0.32-2.48-0.64-3.68-1.04c-0.56-0.16-1.28-0.32-1.84-0.48c-11.52-3.68-22.64-8.4-33.12-14.16
			c-3.28-1.84-6.48-3.68-9.6-5.68c-0.64-0.4-1.36-0.88-2-1.28c-2.72-1.76-5.28-3.52-7.84-5.44c-12.96-9.28-24.64-20.24-34.8-32.56
			c-0.48-0.56-0.88-1.12-1.36-1.68c-0.88-1.04-1.68-2.08-2.48-3.2c-24.48-31.52-38.96-71.04-38.96-114
			c0-103.04,83.52-186.64,186.64-186.64C2334.25,1837.72,2417.85,1921.32,2417.85,2024.36z"/>
		<g>
			<polygon class="st22" points="2557.6,1960.52 2573.79,1993.32 2609.99,1998.58 2583.8,2024.12 2589.98,2060.17 2557.6,2043.15 
				2525.22,2060.17 2531.4,2024.12 2505.21,1998.58 2541.41,1993.32 			"/>
			<polygon class="st22" points="2686.62,1960.52 2702.81,1993.32 2739.01,1998.58 2712.81,2024.12 2719,2060.17 2686.62,2043.15 
				2654.23,2060.17 2660.42,2024.12 2634.22,1998.58 2670.43,1993.32 			"/>
			<polygon class="st22" points="2815.63,1960.52 2831.82,1993.32 2868.03,1998.58 2841.83,2024.12 2848.01,2060.17 
				2815.63,2043.15 2783.25,2060.17 2789.44,2024.12 2763.24,1998.58 2799.44,1993.32 			"/>
			<polygon class="st22" points="2944.65,1960.52 2960.84,1993.32 2997.04,1998.58 2970.85,2024.12 2977.03,2060.17 
				2944.65,2043.15 2912.27,2060.17 2918.45,2024.12 2892.25,1998.58 2928.46,1993.32 			"/>
			<polygon class="st22" points="3073.66,1960.52 3089.86,1993.32 3126.06,1998.58 3099.86,2024.12 3106.05,2060.17 
				3073.66,2043.15 3041.28,2060.17 3047.47,2024.12 3021.27,1998.58 3057.47,1993.32 			"/>
		</g>
		<g>
			<rect x="2519.45" y="1887.34" class="st8" width="295.59" height="24"/>
		</g>
		<g>
			<rect x="2519.45" y="2112.67" class="st8" width="718.08" height="24"/>
		</g>
		<g>
			<rect x="2519.45" y="2168.49" class="st8" width="436.3" height="24"/>
		</g>
		<g>
			<defs>
				<path id="SVGID_00000029032487332564539480000007430112739129939630_" d="M2417.85,2024.36c0,43.44-14.88,83.28-39.84,115.04
					c-0.4,0.56-0.8,1.12-1.28,1.68c-0.88,1.2-1.84,2.4-2.96,3.52c-0.88,1.28-1.84,2.32-2.8,3.44c-0.24,0.24-0.48,0.56-0.72,0.8
					c-0.32,0.4-0.64,0.8-1.04,1.12c-2.88,3.2-5.84,6.24-8.96,9.2c-10.8,10.48-22.88,19.44-35.92,26.96
					c-5.28,3.12-10.8,5.92-16.4,8.4c-8.48,3.92-17.36,7.12-26.48,9.68c-3.52,0.96-7.12,1.84-10.72,2.56c-3.6,0.88-7.28,1.52-10.96,2
					c-5.44,0.88-10.88,1.44-16.48,1.76c-3.92,0.4-8,0.48-12.08,0.48c-4.4,0-8.72-0.16-12.96-0.56c-7.2-0.48-14.32-1.36-21.28-2.56
					c-5.68-1.12-11.28-2.4-16.72-4c-1.2-0.32-2.48-0.64-3.68-1.04c-0.56-0.16-1.28-0.32-1.84-0.48
					c-11.52-3.68-22.64-8.4-33.12-14.16c-3.28-1.84-6.48-3.68-9.6-5.68c-0.64-0.4-1.36-0.88-2-1.28c-2.72-1.76-5.28-3.52-7.84-5.44
					c-12.96-9.28-24.64-20.24-34.8-32.56c-0.48-0.56-0.88-1.12-1.36-1.68c-0.88-1.04-1.68-2.08-2.48-3.2
					c-24.48-31.52-38.96-71.04-38.96-114c0-103.04,83.52-186.64,186.64-186.64C2334.25,1837.72,2417.85,1921.32,2417.85,2024.36z"/>
			</defs>
			<clipPath id="SVGID_00000156584955335982121710000006173777204117758652_">
				<use xlink:href="#SVGID_00000029032487332564539480000007430112739129939630_"  style="overflow:visible;"/>
			</clipPath>
			<g style="clip-path:url(#SVGID_00000156584955335982121710000006173777204117758652_);">
				<g>
					
						<linearGradient id="SVGID_00000162311956743467293640000007531271559853993402_" gradientUnits="userSpaceOnUse" x1="2177.6941" y1="2056.6389" x2="2288.6753" y2="2056.6389">
						<stop  offset="0" style="stop-color:#E0653D"/>
						<stop  offset="1" style="stop-color:#E87950"/>
					</linearGradient>
					<path style="fill:url(#SVGID_00000162311956743467293640000007531271559853993402_);" d="M2267.12,2015.94
						c0,13.23,11.27,70.8,21.56,75.21c-33.32,10.29-89.91,5.88-110.98,0.24c5.88-6.61,16.66-15.68,20.33-37.73
						c3.67-22.05,2.94-36.75,2.94-36.75L2267.12,2015.94z"/>
					<path class="st15" d="M2195.33,2058.32c0,0,16.03-4.18,27.56-8.08c22.78-7.72,46.3-24.62,46.3-24.62s2.2,19.84,4.78,29.03
						c2.57,9.19,6.15,27.97,15.8,36.01c15.43,12.86,59.9,22.42,72.76,48.51c13.66,27.72,13.6,92.24,13.6,92.24h-282.6
						c0,0,0.74-61,12.86-91.87c12.13-30.87,53.65-32.34,70.56-49.98C2193.86,2071.92,2195.33,2058.32,2195.33,2058.32z"/>
					<path class="st14" d="M2183.39,1912.43c6.54-19.63,22.6-35.28,53.47-35.28s49.25,21.7,54.02,39.69
						c4.78,18.01,6.98,59.53-16.9,85.99c-23.89,26.46-76.07,15.25-86.73-17.09C2176.59,1953.4,2177.51,1930.07,2183.39,1912.43z"/>
					<path class="st18" d="M2236.12,1906.55c19.11-1.1,47.53,22.66,49.24,57.7c1.37,27.9-3.8,78.15-49.37,78.15
						c-45.57,0-49.49-48.75-50.22-67.86S2197.95,1908.75,2236.12,1906.55z"/>
					<path class="st20" d="M2206.91,1967.92c0,1.42-1.15,2.57-2.57,2.57s-2.57-1.15-2.57-2.57c0-1.42,1.15-2.57,2.57-2.57
						S2206.91,1966.5,2206.91,1967.92z"/>
					<circle class="st20" cx="2264.6" cy="1969.39" r="2.57"/>
					<circle class="st17" cx="2205.07" cy="1988.31" r="8.45"/>
					<g>
						<g>
							<circle class="st17" cx="2266.07" cy="1987.76" r="8.45"/>
						</g>
					</g>
					<g>
						<g>
							<path class="st8" d="M2222.53,2000.01c-0.03,4.87,5.88,8.85,13.18,8.89s13.25-3.88,13.28-8.75
								c0.03-4.87-5.48-0.03-12.79-0.07C2228.89,2000.05,2222.55,1995.14,2222.53,2000.01z"/>
						</g>
					</g>
					<g>
						<g>
							<path class="st17" d="M2235.76,1965.28l-10.17,23.89l7.59,2.22c1.6,0.47,3.3,0.44,4.88-0.07l7.74-2.52L2235.76,1965.28z"/>
						</g>
					</g>
					<path class="st17" d="M2184.95,1959.58c0,0-12.21-2.79-12.46,13.3c-0.25,16.09,14.45,13.6,14.45,13.6L2184.95,1959.58z"/>
					<path class="st17" d="M2286.57,1961.79c0,0,12.21-2.79,12.46,13.3c0.25,16.09-14.45,13.6-14.45,13.6L2286.57,1961.79z"/>
					<g>
						<path class="st18" d="M2093.54,2231.41h51.99l3.13-53.29c0,0-37.05-4.12-49-13.34
							C2093.97,2195.45,2093.54,2231.41,2093.54,2231.41z"/>
						<path class="st18" d="M2373.13,2182.79c-2.55-0.68-10.12-2.24-23.27-1.36c-16.54,1.1-31.97,3.31-31.97,3.31l1.01,46.67h57.23
							C2376.14,2231.41,2376.16,2207.66,2373.13,2182.79z"/>
					</g>
				</g>
			</g>
		</g>
	</g>
	<g>
		<path class="st25" d="M1598.37,1637.66H360.14c-55.92,0-101.25-45.33-101.25-101.25v-338.78c0-55.92,45.33-101.25,101.25-101.25
			h1238.23c55.92,0,101.25,45.33,101.25,101.25v338.78C1699.62,1592.33,1654.29,1637.66,1598.37,1637.66z"/>
		<polygon class="st25" points="1422.92,1628.44 1488.85,1779.58 1276.64,1628.44 		"/>
		<path class="st8" d="M738.73,1358.18c0,43.36-14.88,83.28-39.76,114.96c-1.36,1.84-2.72,3.52-4.32,5.2
			c-0.32,0.56-0.72,0.96-1.04,1.44c-0.8,0.96-1.6,1.92-2.4,2.88c-3.28,3.6-6.56,6.96-10.08,10.32c-10.8,10.4-22.8,19.44-35.92,26.88
			c-13.28,7.68-27.44,13.76-42.56,18c-4.56,1.28-8.96,2.32-13.36,3.12c-6.24,1.36-12.64,2.32-19.2,2.8
			c-1.92,0.32-3.84,0.48-5.84,0.56c-2.56,0.24-5.12,0.32-7.76,0.4c-1.44,0.08-2.96,0.08-4.4,0.08c-4.32,0-8.72-0.24-12.96-0.64
			c-0.8-0.08-1.68-0.08-2.48-0.16c-13.52-0.96-26.64-3.52-39.2-7.36c-0.56-0.24-1.2-0.4-1.84-0.48
			c-15.12-4.88-29.52-11.6-42.72-19.92c-10.48-6.64-20.32-14.24-29.28-22.8c-5.44-5.12-10.56-10.64-15.28-16.4
			c-1.36-1.6-2.72-3.2-3.92-4.96c-3.6-4.64-7.04-9.52-10.16-14.48c-18.32-28.8-28.8-62.88-28.8-99.44
			c0-103.12,83.6-186.64,186.64-186.64C655.21,1171.54,738.73,1255.06,738.73,1358.18z"/>
		<g>
			<polygon class="st22" points="878.5,1294.28 894.69,1327.09 930.89,1332.35 904.69,1357.88 910.88,1393.94 878.5,1376.92 
				846.11,1393.94 852.3,1357.88 826.1,1332.35 862.3,1327.09 			"/>
			<polygon class="st22" points="1007.51,1294.28 1023.7,1327.09 1059.91,1332.35 1033.71,1357.88 1039.89,1393.94 1007.51,1376.92 
				975.13,1393.94 981.31,1357.88 955.12,1332.35 991.32,1327.09 			"/>
			<polygon class="st22" points="1136.53,1294.28 1152.72,1327.09 1188.92,1332.35 1162.73,1357.88 1168.91,1393.94 
				1136.53,1376.92 1104.15,1393.94 1110.33,1357.88 1084.13,1332.35 1120.34,1327.09 			"/>
			<polygon class="st22" points="1265.54,1294.28 1281.73,1327.09 1317.94,1332.35 1291.74,1357.88 1297.93,1393.94 
				1265.54,1376.92 1233.16,1393.94 1239.35,1357.88 1213.15,1332.35 1249.35,1327.09 			"/>
			<polygon class="st22" points="1394.56,1294.28 1410.75,1327.09 1446.95,1332.35 1420.76,1357.88 1426.94,1393.94 
				1394.56,1376.92 1362.18,1393.94 1368.36,1357.88 1342.17,1332.35 1378.37,1327.09 			"/>
		</g>
		<g>
			<rect x="840.34" y="1221.1" class="st8" width="295.59" height="24"/>
		</g>
		<g>
			<rect x="840.34" y="1446.43" class="st8" width="718.09" height="24"/>
		</g>
		<g>
			<rect x="840.34" y="1502.26" class="st8" width="436.3" height="24"/>
		</g>
		<g>
			<defs>
				<path id="SVGID_00000160890124253708160380000009270302845235889820_" d="M738.73,1358.18c0,43.36-14.88,83.28-39.76,114.96
					c-1.36,1.84-2.72,3.52-4.32,5.2c-0.32,0.56-0.72,0.96-1.04,1.44c-0.8,0.96-1.6,1.92-2.4,2.88c-3.28,3.6-6.56,6.96-10.08,10.32
					c-10.8,10.4-22.8,19.44-35.92,26.88c-13.28,7.68-27.44,13.76-42.56,18c-4.56,1.28-8.96,2.32-13.36,3.12
					c-6.24,1.36-12.64,2.32-19.2,2.8c-1.92,0.32-3.84,0.48-5.84,0.56c-2.56,0.24-5.12,0.32-7.76,0.4c-1.44,0.08-2.96,0.08-4.4,0.08
					c-4.32,0-8.72-0.24-12.96-0.64c-0.8-0.08-1.68-0.08-2.48-0.16c-13.52-0.96-26.64-3.52-39.2-7.36c-0.56-0.24-1.2-0.4-1.84-0.48
					c-15.12-4.88-29.52-11.6-42.72-19.92c-10.48-6.64-20.32-14.24-29.28-22.8c-5.44-5.12-10.56-10.64-15.28-16.4
					c-1.36-1.6-2.72-3.2-3.92-4.96c-3.6-4.64-7.04-9.52-10.16-14.48c-18.32-28.8-28.8-62.88-28.8-99.44
					c0-103.12,83.6-186.64,186.64-186.64C655.21,1171.54,738.73,1255.06,738.73,1358.18z"/>
			</defs>
			<clipPath id="SVGID_00000062898954859160167930000008143612171056725393_">
				<use xlink:href="#SVGID_00000160890124253708160380000009270302845235889820_"  style="overflow:visible;"/>
			</clipPath>
			<g style="clip-path:url(#SVGID_00000062898954859160167930000008143612171056725393_);">
				<path class="st21" d="M711.02,1511.72c-14.3-45.09-73.68-74.78-113.27-102.79h-97.97c-39.59,28.01-98.97,57.71-113.27,102.79
					c-14.3,45.09-9.9,57.19-9.9,57.19h155.16h34h155.16C720.92,1568.91,725.32,1556.81,711.02,1511.72z"/>
				
					<linearGradient id="SVGID_00000101099356364359753030000007870068005312951687_" gradientUnits="userSpaceOnUse" x1="546.2097" y1="1363.7924" x2="548.2457" y2="1397.9976">
					<stop  offset="0" style="stop-color:#E0653D"/>
					<stop  offset="1" style="stop-color:#E87950"/>
				</linearGradient>
				<path style="fill:url(#SVGID_00000101099356364359753030000007870068005312951687_);" d="M499.41,1344.2l0.37,64.73
					c0,0,23.83,21.09,54.62,19.5c30.79-1.59,43.62-19.34,43.62-19.34l-5.87-65.25L499.41,1344.2z"/>
				<g>
					<g>
						<path class="st17" d="M602.12,1290.42c0,0,13.84-3.52,14.58,14.82s-16.11,15.91-16.11,15.91L602.12,1290.42z"/>
					</g>
				</g>
				<g>
					<g>
						<path class="st17" d="M488.72,1290.24c0,0-13.84-3.52-14.58,14.83c-0.73,18.35,16.11,15.91,16.11,15.91L488.72,1290.24z"/>
					</g>
				</g>
				<g>
					<g id="XMLID_00000137834305666776872220000012050657503588877759_">
						<g>
							<path class="st18" d="M603.7,1309.85c0,42.55-29.13,75.89-57.11,75.12c-27.98-0.77-59.41-34.87-59.41-77.42
								s-4.65-78.59,58.23-81.21C598.2,1224.14,603.7,1267.3,603.7,1309.85z"/>
						</g>
					</g>
				</g>
				<path class="st14" d="M542.3,1209.3c13.93-1.83,39.22,16.86,43.26,23.09c4.03,6.23,14.34,22.83,16.5,38.86
					c2.93,21.81,1.83,39.59,1.83,39.59s-4.95-32.26-6.05-36.66c-1.1-4.4-6.66-17.23-9.96-21.26c-1.91-2.33-4.1-7.84-5.61-12.08
					c-1.14-3.19-4.36-5.14-7.71-4.68c-8.01,1.1-22.29,2.94-30.42,3.2c-8.39,0.26-24.08-0.6-32.34-1.11
					c-3.13-0.19-6.03,1.67-7.13,4.61c-1.6,4.27-4.33,10.77-8.18,17.4c-6.72,11.57-8.49,21.74-6.96,30.79
					c1.53,9.05-2.93,19.61-2.93,19.61s-1.1-21.44,0-37.57c1.1-16.13,6.23-30.43,15.03-40.69
					C510.41,1222.13,529.54,1210.98,542.3,1209.3z"/>
				<g>
					<g>
						<path class="st20" d="M516.64,1297.64c0,1.42-1.15,2.57-2.57,2.57c-1.42,0-2.57-1.15-2.57-2.57c0-1.42,1.15-2.57,2.57-2.57
							C515.49,1295.08,516.64,1296.22,516.64,1297.64z"/>
					</g>
				</g>
				<g>
					<g>
						<circle class="st20" cx="574.93" cy="1296.54" r="2.57"/>
					</g>
				</g>
				<g>
					<g>
						<path class="st17" d="M546.03,1294.35l-10.14,23.83l7.57,2.22c1.59,0.47,3.29,0.44,4.87-0.07l7.72-2.51L546.03,1294.35z"/>
					</g>
				</g>
				<path class="st14" d="M502.43,1356.62c11.71,17,28.48,27.92,44.17,28.35c15.99,0.44,32.36-10.27,43.44-27.47
					c-3.81-8.72-18.31-37.65-42.61-36.4C519.92,1322.51,512.43,1340.56,502.43,1356.62z"/>
				<g>
					<g>
						<g>
							<path class="st8" d="M531.67,1333.14c-0.03,4.86,5.86,8.83,13.15,8.87s13.22-3.87,13.24-8.73c0.03-4.86-5.47-0.03-12.76-0.07
								C538.02,1333.17,531.7,1328.28,531.67,1333.14z"/>
						</g>
					</g>
				</g>
				<g>
					<g>
						<circle class="st17" cx="506.74" cy="1317.07" r="8.43"/>
					</g>
				</g>
				<g>
					<g>
						<circle class="st17" cx="580.79" cy="1317.07" r="8.43"/>
					</g>
				</g>
			</g>
		</g>
	</g>
</g>
</svg>
